<svg version="1.1" viewBox="0.0 0.0 629.49343832021 304.1469816272966" fill="none" stroke="none" stroke-linecap="square" stroke-miterlimit="10" xmlns:xlink="http://www.w3.org/1999/xlink" xmlns="http://www.w3.org/2000/svg"><clipPath id="p.0"><path d="m0 0l629.4934 0l0 304.14697l-629.4934 0l0 -304.14697z" clip-rule="nonzero"/></clipPath><g clip-path="url(#p.0)"><path fill="#000000" fill-opacity="0.0" d="m0 0l629.4934 0l0 304.14697l-629.4934 0z" fill-rule="evenodd"/><g filter="url(#shadowFilter-p.1)"><use xlink:href="#p.1" transform="matrix(1.0 0.0 0.0 1.0 0.0 2.0)"/></g><defs><filter id="shadowFilter-p.1" filterUnits="userSpaceOnUse"><feGaussianBlur in="SourceAlpha" stdDeviation="2.0" result="blur"/><feComponentTransfer in="blur" color-interpolation-filters="sRGB"><feFuncR type="linear" slope="0" intercept="0.0"/><feFuncG type="linear" slope="0" intercept="0.0"/><feFuncB type="linear" slope="0" intercept="0.0"/><feFuncA type="linear" slope="0.5" intercept="0"/></feComponentTransfer></filter></defs><g id="p.1"><path fill="#d9ead3" d="m388.6457 18.50773l0 0c0 -3.2578526 2.6410217 -5.8988647 5.8988647 -5.8988647l218.44684 0c1.5644531 0 3.0648804 0.6214857 4.1711426 1.7277374c1.1062622 1.1062517 1.7277222 2.6066513 1.7277222 4.1711273l0 270.5342c0 3.257843 -2.6409912 5.8988647 -5.8988647 5.8988647l-218.44684 0c-3.257843 0 -5.8988647 -2.6410217 -5.8988647 -5.8988647z" fill-rule="evenodd"/><path stroke="#000000" stroke-width="1.0" stroke-linejoin="round" stroke-linecap="butt" d="m388.6457 18.50773l0 0c0 -3.2578526 2.6410217 -5.8988647 5.8988647 -5.8988647l218.44684 0c1.5644531 0 3.0648804 0.6214857 4.1711426 1.7277374c1.1062622 1.1062517 1.7277222 2.6066513 1.7277222 4.1711273l0 270.5342c0 3.257843 -2.6409912 5.8988647 -5.8988647 5.8988647l-218.44684 0c-3.257843 0 -5.8988647 -2.6410217 -5.8988647 -5.8988647z" fill-rule="evenodd"/><path fill="#000000" d="m463.53693 44.066586q-1.75 0 -3.21875 -0.796875q-1.46875 -0.8125 -2.359375 -2.40625q-0.875 -1.59375 -0.875 -3.921875q0 -2.296875 0.90625 -3.921875q0.90625 -1.6406269 2.40625 -2.500002q1.5 -0.859375 3.25 -0.859375q1.34375 0 2.40625 0.546875q1.078125 0.53125 1.78125 1.265625l-1.671875 2.000002q-0.53125 -0.484375 -1.125 -0.796875q-0.578125 -0.3125 -1.328125 -0.3125q-0.9375 0 -1.71875 0.53125q-0.765625 0.53125 -1.234375 1.546875q-0.453125 1.0 -0.453125 2.40625q0 2.125 0.90625 3.328125q0.921875 1.1875 2.46875 1.1875q0.84375 0 1.515625 -0.375q0.671875 -0.390625 1.1875 -0.921875l1.65625 1.953125q-1.75 2.046875 -4.5 2.046875zm10.8974 0q-1.34375 0 -2.53125 -0.640625q-1.171875 -0.65625 -1.90625 -1.90625q-0.71875 -1.25 -0.71875 -3.0q0 -1.765625 0.71875 -3.0q0.734375 -1.234375 1.90625 -1.875q1.1875 -0.65625 2.53125 -0.65625q1.34375 0 2.515625 0.65625q1.1875 0.640625 1.90625 1.875q0.71875 1.234375 0.71875 3.0q0 1.75 -0.71875 3.0q-0.71875 1.25 -1.90625 1.90625q-1.171875 0.640625 -2.515625 0.640625zm0 -2.53125q0.96875 0 1.453125 -0.8125q0.5 -0.828125 0.5 -2.203125q0 -1.375 -0.5 -2.1875q-0.484375 -0.8125 -1.453125 -0.8125q-0.96875 0 -1.453125 0.8125q-0.484375 0.8125 -0.484375 2.1875q0 1.375 0.484375 2.203125q0.484375 0.8125 1.453125 0.8125zm10.180908 2.53125q-1.625 0 -2.25 -0.96875q-0.625 -0.96875 -0.625 -2.5625l0 -11.671877l3.125 0l0 11.796877q0 0.484375 0.1875 0.6875q0.1875 0.1875 0.375 0.1875q0.109375 0 0.171875 0q0.078125 -0.015625 0.203125 -0.046875l0.390625 2.328125q-0.25 0.109375 -0.65625 0.171875q-0.390625 0.078125 -0.921875 0.078125zm6.099884 0q-1.625 0 -2.25 -0.96875q-0.625 -0.96875 -0.625 -2.5625l0 -11.671877l3.125 0l0 11.796877q0 0.484375 0.1875 0.6875q0.1875 0.1875 0.375 0.1875q0.109375 0 0.171875 0q0.078125 -0.015625 0.203125 -0.046875l0.390625 2.328125q-0.25 0.109375 -0.65625 0.171875q-0.390625 0.078125 -0.921875 0.078125zm7.9592285 0q-1.515625 0 -2.734375 -0.65625q-1.21875 -0.65625 -1.921875 -1.890625q-0.703125 -1.25 -0.703125 -3.0q0 -1.71875 0.71875 -2.953125q0.71875 -1.234375 1.859375 -1.90625q1.15625 -0.671875 2.421875 -0.671875q1.5 0 2.484375 0.671875q1.0 0.671875 1.5 1.8125q0.515625 1.140625 0.515625 2.578125q0 0.40625 -0.046875 0.8125q-0.046875 0.390625 -0.09375 0.578125l-6.328125 0q0.21875 1.15625 0.953125 1.703125q0.75 0.53125 1.796875 0.53125q1.125 0 2.28125 -0.703125l1.046875 1.90625q-0.8125 0.546875 -1.8125 0.875q-1.0 0.3125 -1.9375 0.3125zm-2.34375 -6.6875l3.8125 0q0 -0.875 -0.421875 -1.4375q-0.40625 -0.578125 -1.34375 -0.578125q-0.734375 0 -1.3125 0.515625q-0.5625 0.5 -0.734375 1.5zm13.266785 6.6875q-1.484375 0 -2.671875 -0.640625q-1.171875 -0.65625 -1.875 -1.90625q-0.6875 -1.25 -0.6875 -3.0q0 -1.765625 0.765625 -3.0q0.765625 -1.234375 2.015625 -1.875q1.265625 -0.65625 2.71875 -0.65625q0.984375 0 1.734375 0.328125q0.7655945 0.3125 1.3593445 0.796875l-1.4687195 2.03125q-0.75 -0.625 -1.421875 -0.625q-1.140625 0 -1.8125 0.8125q-0.671875 0.8125 -0.671875 2.1875q0 1.375 0.671875 2.203125q0.671875 0.8125 1.703125 0.8125q0.515625 0 1.0 -0.21875q0.484375 -0.234375 0.890625 -0.546875l1.2343445 2.046875q-0.78125 0.6875 -1.7030945 0.96875q-0.90625 0.28125 -1.78125 0.28125zm9.200043 0q-1.953125 0 -2.796875 -1.125q-0.84375 -1.125 -0.84375 -2.96875l0 -4.28125l-1.453125 0l0 -2.328125l1.625 -0.125l0.359375 -2.812502l2.609375 0l0 2.812502l2.53125 0l0 2.453125l-2.53125 0l0 4.25q0 0.890625 0.359375 1.28125q0.375 0.390625 1.0 0.390625q0.25 0 0.515625 -0.0625q0.28125 -0.0625 0.484375 -0.140625l0.5 2.28125q-0.40625 0.125 -1.0 0.25q-0.578125 0.125 -1.359375 0.125zm4.106201 -0.25l0 -10.578125l3.125 0l0 10.578125l-3.125 0zm1.546875 -12.140627q-0.796875 0 -1.28125 -0.4375q-0.484375 -0.453125 -0.484375 -1.203125q0 -0.75 0.484375 -1.1875q0.484375 -0.453125 1.28125 -0.453125q0.796875 0 1.28125 0.453125q0.484375 0.4375 0.484375 1.1875q0 0.75 -0.484375 1.203125q-0.484375 0.4375 -1.28125 0.4375zm8.870972 12.390627q-1.34375 0 -2.53125 -0.640625q-1.171875 -0.65625 -1.90625 -1.90625q-0.71875 -1.25 -0.71875 -3.0q0 -1.765625 0.71875 -3.0q0.734375 -1.234375 1.90625 -1.875q1.1875 -0.65625 2.53125 -0.65625q1.34375 0 2.515625 0.65625q1.1875 0.640625 1.90625 1.875q0.71875 1.234375 0.71875 3.0q0 1.75 -0.71875 3.0q-0.71875 1.25 -1.90625 1.90625q-1.171875 0.640625 -2.515625 0.640625zm0 -2.53125q0.96875 0 1.453125 -0.8125q0.5 -0.828125 0.5 -2.203125q0 -1.375 -0.5 -2.1875q-0.484375 -0.8125 -1.453125 -0.8125q-0.96875 0 -1.453125 0.8125q-0.484375 0.8125 -0.484375 2.1875q0 1.375 0.484375 2.203125q0.484375 0.8125 1.453125 0.8125zm7.305908 2.28125l0 -10.578125l2.5625 0l0.203125 1.34375l0.09375 0q0.671875 -0.640625 1.484375 -1.109375q0.828125 -0.484375 1.90625 -0.484375q1.71875 0 2.5 1.140625q0.78125 1.140625 0.78125 3.125l0 6.5625l-3.140625 0l0 -6.15625q0 -1.15625 -0.3125 -1.578125q-0.296875 -0.4375 -0.984375 -0.4375q-0.59375 0 -1.03125 0.265625q-0.421875 0.265625 -0.9375 0.765625l0 7.140625l-3.125 0z" fill-rule="nonzero"/></g><g filter="url(#shadowFilter-p.2)"><use xlink:href="#p.2" transform="matrix(1.0 0.0 0.0 1.0 0.0 2.0)"/></g><defs><filter id="shadowFilter-p.2" filterUnits="userSpaceOnUse"><feGaussianBlur in="SourceAlpha" stdDeviation="2.0" result="blur"/><feComponentTransfer in="blur" color-interpolation-filters="sRGB"><feFuncR type="linear" slope="0" intercept="0.0"/><feFuncG type="linear" slope="0" intercept="0.0"/><feFuncB type="linear" slope="0" intercept="0.0"/><feFuncA type="linear" slope="0.5" intercept="0"/></feComponentTransfer></filter></defs><g id="p.2"><path fill="#93c47d" d="m399.96603 95.87351l0 0c0 -3.481865 2.8226013 -6.304474 6.304474 -6.304474l194.97784 0c1.6719971 0 3.2755737 0.6642227 4.4578857 1.8465347c1.182373 1.1823196 1.8465576 2.7858887 1.8465576 4.457939l0 44.152306c0 3.4818573 -2.8226318 6.304474 -6.3044434 6.304474l-194.97784 0c-3.4818726 0 -6.304474 -2.8226166 -6.304474 -6.304474z" fill-rule="evenodd"/><path fill="#000000" d="m416.00006 125.08841q-1.25 0 -2.25 -0.5625q-1.0 -0.578125 -1.59375 -1.640625q-0.578125 -1.078125 -0.578125 -2.59375q0 -1.515625 0.625 -2.59375q0.640625 -1.078125 1.6875 -1.640625q1.0625 -0.578125 2.28125 -0.578125q0.875 0 1.515625 0.3125q0.65625 0.296875 1.171875 0.71875l-1.046875 1.40625q-0.359375 -0.328125 -0.734375 -0.5q-0.375 -0.171875 -0.796875 -0.171875q-1.109375 0 -1.8125 0.84375q-0.6875 0.828125 -0.6875 2.203125q0 1.375 0.671875 2.21875q0.6875 0.828125 1.765625 0.828125q0.546875 0 1.015625 -0.234375q0.484375 -0.234375 0.875 -0.546875l0.875 1.421875q-0.640625 0.5625 -1.421875 0.84375q-0.78125 0.265625 -1.5625 0.265625zm4.791046 -0.21875l0 -13.171875l2.140625 0l0 3.390625l-0.0625 1.78125q0.578125 -0.546875 1.28125 -0.96875q0.703125 -0.421875 1.640625 -0.421875q1.46875 0 2.140625 0.953125q0.671875 0.953125 0.671875 2.6875l0 5.75l-2.140625 0l0 -5.46875q0 -1.140625 -0.34375 -1.59375q-0.328125 -0.46875 -1.09375 -0.46875q-0.59375 0 -1.0625 0.296875q-0.453125 0.28125 -1.03125 0.828125l0 6.40625l-2.140625 0zm10.410187 0l0 -9.15625l1.78125 0l0.140625 1.625l0.078125 0q0.484375 -0.90625 1.171875 -1.375q0.6875 -0.484375 1.421875 -0.484375q0.65625 0 1.046875 0.1875l-0.375 1.875q-0.25 -0.078125 -0.453125 -0.109375q-0.203125 -0.046875 -0.5 -0.046875q-0.546875 0 -1.140625 0.421875q-0.59375 0.421875 -1.03125 1.46875l0 5.59375l-2.140625 0zm6.9744263 0l0 -1.75l2.65625 0l0 -7.796875l-2.1875 0l0 -1.34375q0.875 -0.171875 1.53125 -0.40625q0.65625 -0.234375 1.21875 -0.5625l1.59375 0l0 10.109375l2.34375 0l0 1.75l-7.15625 0z" fill-rule="nonzero"/></g><g filter="url(#shadowFilter-p.3)"><use xlink:href="#p.3" transform="matrix(1.0 0.0 0.0 1.0 0.0 2.0)"/></g><defs><filter id="shadowFilter-p.3" filterUnits="userSpaceOnUse"><feGaussianBlur in="SourceAlpha" stdDeviation="2.0" result="blur"/><feComponentTransfer in="blur" color-interpolation-filters="sRGB"><feFuncR type="linear" slope="0" intercept="0.0"/><feFuncG type="linear" slope="0" intercept="0.0"/><feFuncB type="linear" slope="0" intercept="0.0"/><feFuncA type="linear" slope="0.5" intercept="0"/></feComponentTransfer></filter></defs><g id="p.3"><path fill="#93c47d" d="m399.96603 164.08376l0 0c0 -3.4818573 2.8226013 -6.304474 6.304474 -6.304474l194.97784 0c1.6719971 0 3.2755737 0.66423035 4.4578857 1.8465424c1.182373 1.182312 1.8465576 2.7858887 1.8465576 4.4579315l0 44.152313c0 3.4818573 -2.8226318 6.3044586 -6.3044434 6.3044586l-194.97784 0c-3.4818726 0 -6.304474 -2.8226013 -6.304474 -6.3044586z" fill-rule="evenodd"/><path fill="#000000" d="m416.00006 193.29866q-1.25 0 -2.25 -0.5625q-1.0 -0.578125 -1.59375 -1.640625q-0.578125 -1.078125 -0.578125 -2.59375q0 -1.515625 0.625 -2.59375q0.640625 -1.078125 1.6875 -1.640625q1.0625 -0.578125 2.28125 -0.578125q0.875 0 1.515625 0.3125q0.65625 0.296875 1.171875 0.71875l-1.046875 1.40625q-0.359375 -0.328125 -0.734375 -0.5q-0.375 -0.171875 -0.796875 -0.171875q-1.109375 0 -1.8125 0.84375q-0.6875 0.828125 -0.6875 2.203125q0 1.375 0.671875 2.21875q0.6875 0.828125 1.765625 0.828125q0.546875 0 1.015625 -0.234375q0.484375 -0.234375 0.875 -0.546875l0.875 1.421875q-0.640625 0.5625 -1.421875 0.84375q-0.78125 0.265625 -1.5625 0.265625zm4.791046 -0.21875l0 -13.171875l2.140625 0l0 3.390625l-0.0625 1.78125q0.578125 -0.546875 1.28125 -0.96875q0.703125 -0.421875 1.640625 -0.421875q1.46875 0 2.140625 0.953125q0.671875 0.953125 0.671875 2.6875l0 5.75l-2.140625 0l0 -5.46875q0 -1.140625 -0.34375 -1.59375q-0.328125 -0.46875 -1.09375 -0.46875q-0.59375 0 -1.0625 0.296875q-0.453125 0.28125 -1.03125 0.828125l0 6.40625l-2.140625 0zm10.410187 0l0 -9.15625l1.78125 0l0.140625 1.625l0.078125 0q0.484375 -0.90625 1.171875 -1.375q0.6875 -0.484375 1.421875 -0.484375q0.65625 0 1.046875 0.1875l-0.375 1.875q-0.25 -0.078125 -0.453125 -0.109375q-0.203125 -0.046875 -0.5 -0.046875q-0.546875 0 -1.140625 0.421875q-0.59375 0.421875 -1.03125 1.46875l0 5.59375l-2.140625 0zm6.3025513 0l0 -1.25q1.671875 -1.609375 2.875 -2.859375q1.203125 -1.265625 1.84375 -2.296875q0.65625 -1.03125 0.65625 -1.9375q0 -0.921875 -0.5 -1.484375q-0.5 -0.5625 -1.453125 -0.5625q-0.6875 0 -1.265625 0.390625q-0.5625 0.390625 -1.046875 0.9375l-1.203125 -1.203125q0.828125 -0.875 1.703125 -1.34375q0.875 -0.484375 2.09375 -0.484375q1.71875 0 2.734375 1.0q1.015625 0.984375 1.015625 2.640625q0 1.046875 -0.59375 2.140625q-0.578125 1.09375 -1.5625 2.234375q-0.984375 1.125 -2.15625 2.375q0.46875 -0.03125 1.0 -0.078125q0.546875 -0.046875 0.984375 -0.046875l2.90625 0l0 1.828125l-8.03125 0z" fill-rule="nonzero"/></g><g filter="url(#shadowFilter-p.4)"><use xlink:href="#p.4" transform="matrix(1.0 0.0 0.0 1.0 0.0 2.0)"/></g><defs><filter id="shadowFilter-p.4" filterUnits="userSpaceOnUse"><feGaussianBlur in="SourceAlpha" stdDeviation="2.0" result="blur"/><feComponentTransfer in="blur" color-interpolation-filters="sRGB"><feFuncR type="linear" slope="0" intercept="0.0"/><feFuncG type="linear" slope="0" intercept="0.0"/><feFuncB type="linear" slope="0" intercept="0.0"/><feFuncA type="linear" slope="0.5" intercept="0"/></feComponentTransfer></filter></defs><g id="p.4"><path fill="#93c47d" d="m399.96603 232.294l0 0c0 -3.4818573 2.8226013 -6.304474 6.304474 -6.304474l194.97784 0c1.6719971 0 3.2755737 0.66423035 4.4578857 1.8465424c1.182373 1.182312 1.8465576 2.7858887 1.8465576 4.4579315l0 44.152313c0 3.481842 -2.8226318 6.304474 -6.3044434 6.304474l-194.97784 0c-3.4818726 0 -6.304474 -2.8226318 -6.304474 -6.304474z" fill-rule="evenodd"/><path fill="#000000" d="m416.00006 261.5089q-1.25 0 -2.25 -0.5625q-1.0 -0.578125 -1.59375 -1.640625q-0.578125 -1.078125 -0.578125 -2.59375q0 -1.515625 0.625 -2.59375q0.640625 -1.078125 1.6875 -1.640625q1.0625 -0.578125 2.28125 -0.578125q0.875 0 1.515625 0.3125q0.65625 0.296875 1.171875 0.71875l-1.046875 1.40625q-0.359375 -0.328125 -0.734375 -0.5q-0.375 -0.171875 -0.796875 -0.171875q-1.109375 0 -1.8125 0.84375q-0.6875 0.828125 -0.6875 2.203125q0 1.375 0.671875 2.21875q0.6875 0.828125 1.765625 0.828125q0.546875 0 1.015625 -0.234375q0.484375 -0.234375 0.875 -0.546875l0.875 1.421875q-0.640625 0.5625 -1.421875 0.84375q-0.78125 0.265625 -1.5625 0.265625zm4.791046 -0.21875l0 -13.171875l2.140625 0l0 3.390625l-0.0625 1.78125q0.578125 -0.546875 1.28125 -0.96875q0.703125 -0.421875 1.640625 -0.421875q1.46875 0 2.140625 0.953125q0.671875 0.953125 0.671875 2.6875l0 5.75l-2.140625 0l0 -5.46875q0 -1.140625 -0.34375 -1.59375q-0.328125 -0.46875 -1.09375 -0.46875q-0.59375 0 -1.0625 0.296875q-0.453125 0.28125 -1.03125 0.828125l0 6.40625l-2.140625 0zm10.410187 0l0 -9.15625l1.78125 0l0.140625 1.625l0.078125 0q0.484375 -0.90625 1.171875 -1.375q0.6875 -0.484375 1.421875 -0.484375q0.65625 0 1.046875 0.1875l-0.375 1.875q-0.25 -0.078125 -0.453125 -0.109375q-0.203125 -0.046875 -0.5 -0.046875q-0.546875 0 -1.140625 0.421875q-0.59375 0.421875 -1.03125 1.46875l0 5.59375l-2.140625 0zm8.068176 -4.71875l3.109375 0l0 -2.6875q0 -0.515625 0.03125 -1.21875q0.046875 -0.71875 0.0625 -1.25l-0.078125 0q-0.21875 0.46875 -0.46875 0.921875q-0.234375 0.453125 -0.5 0.9375l-2.15625 3.296875zm3.109375 4.71875l0 -3.0625l-5.25 0l0 -1.453125l4.703125 -7.34375l2.5625 0l0 7.140625l1.484375 0l0 1.65625l-1.484375 0l0 3.0625l-2.015625 0z" fill-rule="nonzero"/></g><g filter="url(#shadowFilter-p.5)"><use xlink:href="#p.5" transform="matrix(1.0 0.0 0.0 1.0 0.0 2.0)"/></g><defs><filter id="shadowFilter-p.5" filterUnits="userSpaceOnUse"><feGaussianBlur in="SourceAlpha" stdDeviation="2.0" result="blur"/><feComponentTransfer in="blur" color-interpolation-filters="sRGB"><feFuncR type="linear" slope="0" intercept="0.0"/><feFuncG type="linear" slope="0" intercept="0.0"/><feFuncB type="linear" slope="0" intercept="0.0"/><feFuncA type="linear" slope="0.5" intercept="0"/></feComponentTransfer></filter></defs><g id="p.5"><path fill="#d9ead3" d="m18.618671 18.506853l0 0c0 -3.2578526 2.6410122 -5.8988647 5.8988667 -5.8988647l218.44684 0c1.5644836 0 3.0648804 0.6214857 4.1711273 1.7277374c1.106247 1.1062517 1.7277374 2.6066513 1.7277374 4.1711273l0 270.53418c0 3.257843 -2.6410065 5.8988647 -5.8988647 5.8988647l-218.44684 0c-3.2578545 0 -5.8988667 -2.6410217 -5.8988667 -5.8988647z" fill-rule="evenodd"/><path stroke="#000000" stroke-width="1.0" stroke-linejoin="round" stroke-linecap="butt" d="m18.618671 18.506853l0 0c0 -3.2578526 2.6410122 -5.8988647 5.8988667 -5.8988647l218.44684 0c1.5644836 0 3.0648804 0.6214857 4.1711273 1.7277374c1.106247 1.1062517 1.7277374 2.6066513 1.7277374 4.1711273l0 270.53418c0 3.257843 -2.6410065 5.8988647 -5.8988647 5.8988647l-218.44684 0c-3.2578545 0 -5.8988667 -2.6410217 -5.8988667 -5.8988647z" fill-rule="evenodd"/><path fill="#000000" d="m118.27635 43.81571l0 -13.906252l8.765625 0l0 2.640627l-5.625 0l0 3.21875l4.8125 0l0 2.65625l-4.8125 0l0 5.390625l-3.140625 0zm10.92598 0l0 -10.578125l3.125 0l0 10.578125l-3.125 0zm1.546875 -12.140627q-0.796875 0 -1.28125 -0.4375q-0.484375 -0.453125 -0.484375 -1.203125q0 -0.75 0.484375 -1.1875q0.484375 -0.453125 1.28125 -0.453125q0.796875 0 1.28125 0.453125q0.484375 0.4375 0.484375 1.1875q0 0.75 -0.484375 1.203125q-0.484375 0.4375 -1.28125 0.4375zm7.2147064 12.390627q-1.625 0 -2.25 -0.96875q-0.625 -0.96875 -0.625 -2.5625l0 -11.671877l3.125 0l0 11.796877q0 0.484375 0.1875 0.6875q0.1875 0.1875 0.375 0.1875q0.109375 0 0.171875 0q0.078125 -0.015625 0.203125 -0.046875l0.390625 2.328125q-0.25 0.109375 -0.65625 0.171875q-0.390625 0.078125 -0.921875 0.078125zm7.959244 0q-1.515625 0 -2.734375 -0.65625q-1.21875 -0.65625 -1.921875 -1.890625q-0.703125 -1.25 -0.703125 -3.0q0 -1.71875 0.71875 -2.953125q0.71875 -1.234375 1.859375 -1.90625q1.15625 -0.671875 2.421875 -0.671875q1.5 0 2.484375 0.671875q1.0 0.671875 1.5 1.8125q0.515625 1.140625 0.515625 2.578125q0 0.40625 -0.046875 0.8125q-0.046875 0.390625 -0.09375 0.578125l-6.328125 0q0.21875 1.15625 0.953125 1.703125q0.75 0.53125 1.796875 0.53125q1.125 0 2.28125 -0.703125l1.046875 1.90625q-0.8125 0.546875 -1.8125 0.875q-1.0 0.3125 -1.9375 0.3125zm-2.34375 -6.6875l3.8125 0q0 -0.875 -0.421875 -1.4375q-0.40625 -0.578125 -1.34375 -0.578125q-0.734375 0 -1.3125 0.515625q-0.5625 0.5 -0.734375 1.5z" fill-rule="nonzero"/></g><g filter="url(#shadowFilter-p.6)"><use xlink:href="#p.6" transform="matrix(1.0 0.0 0.0 1.0 0.0 2.0)"/></g><defs><filter id="shadowFilter-p.6" filterUnits="userSpaceOnUse"><feGaussianBlur in="SourceAlpha" stdDeviation="2.0" result="blur"/><feComponentTransfer in="blur" color-interpolation-filters="sRGB"><feFuncR type="linear" slope="0" intercept="0.0"/><feFuncG type="linear" slope="0" intercept="0.0"/><feFuncB type="linear" slope="0" intercept="0.0"/><feFuncA type="linear" slope="0.5" intercept="0"/></feComponentTransfer></filter></defs><g id="p.6"><path fill="#ffffff" d="m33.692913 88.479034l200.91165 0l0 194.28748l-200.91165 0z" fill-rule="evenodd"/><path stroke="#000000" stroke-width="1.0" stroke-linejoin="round" stroke-linecap="butt" d="m33.692913 88.479034l200.91165 0l0 194.28748l-200.91165 0z" fill-rule="evenodd"/><path fill="#000000" d="m52.114788 125.19778l0 -0.28125q0 -0.296875 0.109375 -0.421875q0.125 -0.125 0.296875 -0.125q0.1875 0 0.296875 0.125q0.125 0.125 0.125 0.421875l0 1.859375q0 0.296875 -0.125 0.4375q-0.109375 0.125 -0.296875 0.125q-0.15625 0 -0.28125 -0.109375q-0.109375 -0.125 -0.125 -0.390625q-0.0625 -0.6875 -0.921875 -1.3125q-0.84375 -0.625 -2.28125 -0.625q-1.828125 0 -2.78125 1.140625q-0.953125 1.140625 -0.953125 2.6250076q0 1.59375 1.046875 2.625q1.046875 1.03125 2.703125 1.03125q0.96875 0 1.953125 -0.34375q1.0 -0.359375 1.796875 -1.140625q0.203125 -0.1875 0.359375 -0.1875q0.171875 0 0.28125 0.109375q0.109375 0.109375 0.109375 0.28125q0 0.40625 -0.984375 1.0625q-1.59375 1.046875 -3.546875 1.046875q-1.984375 0 -3.265625 -1.265625q-1.265625 -1.265625 -1.265625 -3.21875q0 -1.9843826 1.296875 -3.2812576q1.3125 -1.3125 3.296875 -1.3125q1.875 0 3.15625 1.125zm5.876953 -4.625l0 5.046875q0.78125 -0.859375 1.5 -1.203125q0.71875 -0.34375 1.609375 -0.34375q0.953125 0 1.625 0.34375q0.671875 0.328125 1.109375 1.03125q0.4531288 0.6875 0.4531288 1.46875l0 5.0781326l0.921875 0q0.3125 0 0.421875 0.125q0.125 0.109375 0.125 0.296875q0 0.171875 -0.125 0.296875q-0.109375 0.109375 -0.421875 0.109375l-2.6562538 0q-0.3125 0 -0.4375 -0.109375q-0.125 -0.125 -0.125 -0.296875q0 -0.1875 0.125 -0.296875q0.125 -0.125 0.4375 -0.125l0.90625 0l0 -5.0156326q0 -0.890625 -0.640625 -1.484375q-0.640625 -0.609375 -1.78125 -0.609375q-0.890625 0 -1.53125 0.453125q-0.453125 0.3125 -1.515625 1.46875l0 5.1875076l0.9375 0q0.28125 0 0.40625 0.125q0.140625 0.109375 0.140625 0.296875q0 0.171875 -0.140625 0.296875q-0.125 0.109375 -0.40625 0.109375l-2.6875 0q-0.28125 0 -0.421875 -0.109375q-0.125 -0.125 -0.125 -0.296875q0 -0.1875 0.125 -0.296875q0.140625 -0.125 0.421875 -0.125l0.9375 0l0 -10.593758l-1.109375 0q-0.296875 0 -0.421875 -0.109375q-0.125 -0.125 -0.125 -0.3125q0 -0.171875 0.125 -0.28125q0.125 -0.125 0.421875 -0.125l1.921875 0zm13.720707 3.796875l0 2.0625q1.609375 -1.4375 2.40625 -1.84375q0.796875 -0.421875 1.46875 -0.421875q0.734375 0 1.359375 0.5q0.625 0.484375 0.625 0.734375q0 0.1875 -0.125 0.3125q-0.109375 0.109375 -0.296875 0.109375q-0.09375 0 -0.171875 -0.03125q-0.0625 -0.03125 -0.25 -0.21875q-0.34375 -0.34375 -0.59375 -0.46875q-0.25 -0.125 -0.5 -0.125q-0.53125 0 -1.296875 0.4375q-0.75 0.421875 -2.625 2.09375l0 4.4843826l3.640625 0q0.296875 0 0.421875 0.125q0.125 0.109375 0.125 0.296875q0 0.171875 -0.125 0.296875q-0.125 0.109375 -0.421875 0.109375l-6.4375 0q-0.296875 0 -0.421875 -0.109375q-0.125 -0.109375 -0.125 -0.296875q0 -0.15625 0.125 -0.265625q0.125 -0.125 0.421875 -0.125l1.984375 0l0 -6.8281326l-1.515625 0q-0.296875 0 -0.421875 -0.109375q-0.125 -0.125 -0.125 -0.3125q0 -0.171875 0.125 -0.28125q0.125 -0.125 0.421875 -0.125l2.328125 0zm13.392578 -3.96875l0 11.593758l2.8125 0q0.296875 0 0.421875 0.125q0.125 0.109375 0.125 0.296875q0 0.171875 -0.125 0.296875q-0.125 0.109375 -0.421875 0.109375l-6.4375 0q-0.296875 0 -0.421875 -0.109375q-0.125 -0.125 -0.125 -0.296875q0 -0.1875 0.125 -0.296875q0.125 -0.125 0.421875 -0.125l2.8125 0l0 -10.468758l-2.6875 0.84375q-0.1875 0.0625 -0.28125 0.0625q-0.140625 0 -0.265625 -0.125q-0.125 -0.125 -0.125 -0.28125q0 -0.15625 0.09375 -0.28125q0.078125 -0.078125 0.328125 -0.15625l3.75 -1.1875zm24.003906 0l0 11.593758l2.8125 0q0.296875 0 0.421875 0.125q0.125 0.109375 0.125 0.296875q0 0.171875 -0.125 0.296875q-0.125 0.109375 -0.421875 0.109375l-6.4375 0q-0.296875 0 -0.421875 -0.109375q-0.125 -0.125 -0.125 -0.296875q0 -0.1875 0.125 -0.296875q0.125 -0.125 0.421875 -0.125l2.8125 0l0 -10.468758l-2.6875 0.84375q-0.1875 0.0625 -0.28125 0.0625q-0.140625 0 -0.265625 -0.125q-0.125 -0.125 -0.125 -0.28125q0 -0.15625 0.09375 -0.28125q0.078125 -0.078125 0.328125 -0.15625l3.75 -1.1875zm15.361328 5.28125l0 2.03125q0 2.6406326 -1.265625 4.1875076q-0.984375 1.21875 -2.484375 1.21875q-0.71875 0 -1.359375 -0.296875q-0.640625 -0.28125 -1.09375 -0.796875q-0.28125 -0.328125 -0.625 -1.03125q-0.328125 -0.71875 -0.46875 -1.3125q-0.234375 -0.84375 -0.234375 -1.9687576l0 -2.03125q0 -2.65625 1.265625 -4.203125q0.984375 -1.203125 2.484375 -1.203125q0.734375 0 1.359375 0.296875q0.640625 0.28125 1.09375 0.796875q0.296875 0.328125 0.625 1.046875q0.328125 0.703125 0.484375 1.296875q0.21875 0.84375 0.21875 1.96875zm-0.8125 0.109375q0 -1.15625 -0.328125 -2.15625q-0.328125 -1.015625 -0.75 -1.609375q-0.234375 -0.34375 -0.625 -0.578125q-0.5625 -0.34375 -1.25 -0.34375q-1.375 0 -2.15625 1.40625q-0.78125 1.40625 -0.78125 3.28125l0 1.8125q0 1.1562576 0.328125 2.1718826q0.328125 1.0 0.734375 1.59375q0.234375 0.328125 0.625 0.578125q0.5625 0.34375 1.265625 0.34375q1.375 0 2.15625 -1.40625q0.78125 -1.40625 0.78125 -3.2812576l0 -1.8125zm17.519531 6.2031326l6.296875 0l0 -0.3125q0 -0.296875 0.109375 -0.421875q0.125 -0.125 0.3125 -0.125q0.171875 0 0.28125 0.125q0.125 0.125 0.125 0.421875l0 1.140625l-7.921875 0l0 -1.21875q2.5 -2.234375 4.859375 -4.5625076q1.109375 -1.078125 1.515625 -1.578125q0.40625 -0.515625 0.5625 -0.90625q0.15625 -0.390625 0.15625 -0.78125q0 -1.046875 -0.859375 -1.859375q-0.84375 -0.8125 -2.046875 -0.8125q-1.078125 0 -1.90625 0.625q-0.828125 0.609375 -1.078125 1.515625q-0.046875 0.234375 -0.140625 0.296875q-0.109375 0.09375 -0.265625 0.09375q-0.171875 0 -0.28125 -0.109375q-0.109375 -0.109375 -0.109375 -0.265625q0 -0.46875 0.5 -1.265625q0.515625 -0.796875 1.421875 -1.25q0.90625 -0.46875 1.84375 -0.46875q1.546875 0 2.640625 1.0625q1.109375 1.0625 1.109375 2.40625q0 0.578125 -0.1875 1.046875q-0.1875 0.46875 -0.640625 1.03125q-0.4375 0.5625 -1.59375 1.703125q-2.890625 2.8437576 -4.703125 4.4218826l0 0.046875zm19.298828 -6.3125076l0 2.03125q0 2.6406326 -1.265625 4.1875076q-0.984375 1.21875 -2.484375 1.21875q-0.71875 0 -1.359375 -0.296875q-0.640625 -0.28125 -1.09375 -0.796875q-0.28125 -0.328125 -0.625 -1.03125q-0.328125 -0.71875 -0.46875 -1.3125q-0.234375 -0.84375 -0.234375 -1.9687576l0 -2.03125q0 -2.65625 1.265625 -4.203125q0.984375 -1.203125 2.484375 -1.203125q0.734375 0 1.359375 0.296875q0.640625 0.28125 1.09375 0.796875q0.296875 0.328125 0.625 1.046875q0.328125 0.703125 0.484375 1.296875q0.21875 0.84375 0.21875 1.96875zm-0.8125 0.109375q0 -1.15625 -0.328125 -2.15625q-0.328125 -1.015625 -0.75 -1.609375q-0.234375 -0.34375 -0.625 -0.578125q-0.5625 -0.34375 -1.25 -0.34375q-1.375 0 -2.15625 1.40625q-0.78125 1.40625 -0.78125 3.28125l0 1.8125q0 1.1562576 0.328125 2.1718826q0.328125 1.0 0.734375 1.59375q0.234375 0.328125 0.625 0.578125q0.5625 0.34375 1.265625 0.34375q1.375 0 2.15625 -1.40625q0.78125 -1.40625 0.78125 -3.2812576l0 -1.8125z" fill-rule="nonzero"/><path fill="#000000" d="m52.114788 161.19778l0 -0.28125q0 -0.296875 0.109375 -0.421875q0.125 -0.125 0.296875 -0.125q0.1875 0 0.296875 0.125q0.125 0.125 0.125 0.421875l0 1.859375q0 0.296875 -0.125 0.4375q-0.109375 0.125 -0.296875 0.125q-0.15625 0 -0.28125 -0.109375q-0.109375 -0.125 -0.125 -0.390625q-0.0625 -0.6875 -0.921875 -1.3125q-0.84375 -0.625 -2.28125 -0.625q-1.828125 0 -2.78125 1.140625q-0.953125 1.140625 -0.953125 2.625q0 1.59375 1.046875 2.625q1.046875 1.03125 2.703125 1.03125q0.96875 0 1.953125 -0.34375q1.0 -0.359375 1.796875 -1.140625q0.203125 -0.1875 0.359375 -0.1875q0.171875 0 0.28125 0.109375q0.109375 0.109375 0.109375 0.28125q0 0.40625 -0.984375 1.0625q-1.59375 1.046875 -3.546875 1.046875q-1.984375 0 -3.265625 -1.265625q-1.265625 -1.265625 -1.265625 -3.21875q0 -1.984375 1.296875 -3.28125q1.3125 -1.3125 3.296875 -1.3125q1.875 0 3.15625 1.125zm5.876953 -4.625l0 5.046875q0.78125 -0.859375 1.5 -1.203125q0.71875 -0.34375 1.609375 -0.34375q0.953125 0 1.625 0.34375q0.671875 0.328125 1.109375 1.03125q0.4531288 0.6875 0.4531288 1.46875l0 5.078125l0.921875 0q0.3125 0 0.421875 0.125q0.125 0.109375 0.125 0.296875q0 0.171875 -0.125 0.296875q-0.109375 0.109375 -0.421875 0.109375l-2.6562538 0q-0.3125 0 -0.4375 -0.109375q-0.125 -0.125 -0.125 -0.296875q0 -0.1875 0.125 -0.296875q0.125 -0.125 0.4375 -0.125l0.90625 0l0 -5.015625q0 -0.890625 -0.640625 -1.484375q-0.640625 -0.609375 -1.78125 -0.609375q-0.890625 0 -1.53125 0.453125q-0.453125 0.3125 -1.515625 1.46875l0 5.1875l0.9375 0q0.28125 0 0.40625 0.125q0.140625 0.109375 0.140625 0.296875q0 0.171875 -0.140625 0.296875q-0.125 0.109375 -0.40625 0.109375l-2.6875 0q-0.28125 0 -0.421875 -0.109375q-0.125 -0.125 -0.125 -0.296875q0 -0.1875 0.125 -0.296875q0.140625 -0.125 0.421875 -0.125l0.9375 0l0 -10.59375l-1.109375 0q-0.296875 0 -0.421875 -0.109375q-0.125 -0.125 -0.125 -0.3125q0 -0.171875 0.125 -0.28125q0.125 -0.125 0.421875 -0.125l1.921875 0zm13.720707 3.796875l0 2.0625q1.609375 -1.4375 2.40625 -1.84375q0.796875 -0.421875 1.46875 -0.421875q0.734375 0 1.359375 0.5q0.625 0.484375 0.625 0.734375q0 0.1875 -0.125 0.3125q-0.109375 0.109375 -0.296875 0.109375q-0.09375 0 -0.171875 -0.03125q-0.0625 -0.03125 -0.25 -0.21875q-0.34375 -0.34375 -0.59375 -0.46875q-0.25 -0.125 -0.5 -0.125q-0.53125 0 -1.296875 0.4375q-0.75 0.421875 -2.625 2.09375l0 4.484375l3.640625 0q0.296875 0 0.421875 0.125q0.125 0.109375 0.125 0.296875q0 0.171875 -0.125 0.296875q-0.125 0.109375 -0.421875 0.109375l-6.4375 0q-0.296875 0 -0.421875 -0.109375q-0.125 -0.109375 -0.125 -0.296875q0 -0.15625 0.125 -0.265625q0.125 -0.125 0.421875 -0.125l1.984375 0l0 -6.828125l-1.515625 0q-0.296875 0 -0.421875 -0.109375q-0.125 -0.125 -0.125 -0.3125q0 -0.171875 0.125 -0.28125q0.125 -0.125 0.421875 -0.125l2.328125 0zm13.392578 -3.96875l0 11.59375l2.8125 0q0.296875 0 0.421875 0.125q0.125 0.109375 0.125 0.296875q0 0.171875 -0.125 0.296875q-0.125 0.109375 -0.421875 0.109375l-6.4375 0q-0.296875 0 -0.421875 -0.109375q-0.125 -0.125 -0.125 -0.296875q0 -0.1875 0.125 -0.296875q0.125 -0.125 0.421875 -0.125l2.8125 0l0 -10.46875l-2.6875 0.84375q-0.1875 0.0625 -0.28125 0.0625q-0.140625 0 -0.265625 -0.125q-0.125 -0.125 -0.125 -0.28125q0 -0.15625 0.09375 -0.28125q0.078125 -0.078125 0.328125 -0.15625l3.75 -1.1875zm25.285156 5.75q1.125 0.515625 1.71875 1.40625q0.609375 0.875 0.609375 1.828125q0 1.46875 -1.203125 2.609375q-1.1875 1.125 -2.984375 1.125q-1.0625 0 -2.203125 -0.453125q-1.125 -0.453125 -1.578125 -0.921875q-0.140625 -0.15625 -0.140625 -0.328125q0 -0.15625 0.109375 -0.265625q0.109375 -0.125 0.265625 -0.125q0.15625 0 0.359375 0.140625q1.515625 1.125 3.203125 1.125q1.421875 0 2.375 -0.890625q0.96875 -0.890625 0.96875 -1.984375q0 -0.734375 -0.46875 -1.4375q-0.46875 -0.703125 -1.359375 -1.109375q-0.890625 -0.40625 -1.796875 -0.40625q-0.296875 0 -0.421875 -0.109375q-0.125 -0.109375 -0.125 -0.296875q0 -0.171875 0.109375 -0.28125q0.125 -0.125 0.375 -0.125l0.703125 0q1.109375 0 1.8125 -0.671875q0.71875 -0.671875 0.71875 -1.5625q0 -0.921875 -0.75 -1.625q-0.75 -0.703125 -1.953125 -0.703125q-0.859375 0 -1.578125 0.296875q-0.703125 0.296875 -1.125 0.796875q-0.15625 0.203125 -0.25 0.25q-0.078125 0.03125 -0.1875 0.03125q-0.171875 0 -0.296875 -0.109375q-0.109375 -0.109375 -0.109375 -0.265625q0 -0.390625 0.859375 -0.984375q1.171875 -0.828125 2.6875 -0.828125q1.546875 0 2.546875 0.9375q1.0 0.921875 1.0 2.21875q0 0.8125 -0.484375 1.546875q-0.484375 0.734375 -1.40625 1.171875zm14.080078 -0.46875l0 2.03125q0 2.640625 -1.265625 4.1875q-0.984375 1.21875 -2.484375 1.21875q-0.71875 0 -1.359375 -0.296875q-0.640625 -0.28125 -1.09375 -0.796875q-0.28125 -0.328125 -0.625 -1.03125q-0.328125 -0.71875 -0.46875 -1.3125q-0.234375 -0.84375 -0.234375 -1.96875l0 -2.03125q0 -2.65625 1.265625 -4.203125q0.984375 -1.203125 2.484375 -1.203125q0.734375 0 1.359375 0.296875q0.640625 0.28125 1.09375 0.796875q0.296875 0.328125 0.625 1.046875q0.328125 0.703125 0.484375 1.296875q0.21875 0.84375 0.21875 1.96875zm-0.8125 0.109375q0 -1.15625 -0.328125 -2.15625q-0.328125 -1.015625 -0.75 -1.609375q-0.234375 -0.34375 -0.625 -0.578125q-0.5625 -0.34375 -1.25 -0.34375q-1.375 0 -2.15625 1.40625q-0.78125 1.40625 -0.78125 3.28125l0 1.8125q0 1.15625 0.328125 2.171875q0.328125 1.0 0.734375 1.59375q0.234375 0.328125 0.625 0.578125q0.5625 0.34375 1.265625 0.34375q1.375 0 2.15625 -1.40625q0.78125 -1.40625 0.78125 -3.28125l0 -1.8125zm22.582031 3.609375l-5.4375 0l0 -0.953125l4.5625 -7.875l1.703125 0l0 8.0l0.6875 0q0.296875 0 0.421875 0.109375q0.125 0.109375 0.125 0.296875q0 0.1875 -0.125 0.3125q-0.125 0.109375 -0.421875 0.109375l-0.6875 0l0 2.59375l0.6875 0q0.296875 0 0.421875 0.125q0.125 0.109375 0.125 0.296875q0 0.171875 -0.125 0.296875q-0.125 0.109375 -0.421875 0.109375l-3.046875 0q-0.3125 0 -0.4375 -0.109375q-0.125 -0.125 -0.125 -0.296875q0 -0.1875 0.125 -0.296875q0.125 -0.125 0.4375 -0.125l1.53125 0l0 -2.59375zm0 -0.828125l0 -7.171875l-0.4375 0l-4.140625 7.171875l4.578125 0zm14.236328 -2.890625l0 2.03125q0 2.640625 -1.265625 4.1875q-0.984375 1.21875 -2.484375 1.21875q-0.71875 0 -1.359375 -0.296875q-0.640625 -0.28125 -1.09375 -0.796875q-0.28125 -0.328125 -0.625 -1.03125q-0.328125 -0.71875 -0.46875 -1.3125q-0.234375 -0.84375 -0.234375 -1.96875l0 -2.03125q0 -2.65625 1.265625 -4.203125q0.984375 -1.203125 2.484375 -1.203125q0.734375 0 1.359375 0.296875q0.640625 0.28125 1.09375 0.796875q0.296875 0.328125 0.625 1.046875q0.328125 0.703125 0.484375 1.296875q0.21875 0.84375 0.21875 1.96875zm-0.8125 0.109375q0 -1.15625 -0.328125 -2.15625q-0.328125 -1.015625 -0.75 -1.609375q-0.234375 -0.34375 -0.625 -0.578125q-0.5625 -0.34375 -1.25 -0.34375q-1.375 0 -2.15625 1.40625q-0.78125 1.40625 -0.78125 3.28125l0 1.8125q0 1.15625 0.328125 2.171875q0.328125 1.0 0.734375 1.59375q0.234375 0.328125 0.625 0.578125q0.5625 0.34375 1.265625 0.34375q1.375 0 2.15625 -1.40625q0.78125 -1.40625 0.78125 -3.28125l0 -1.8125z" fill-rule="nonzero"/><path fill="#000000" d="m52.114788 197.19778l0 -0.28125q0 -0.296875 0.109375 -0.421875q0.125 -0.125 0.296875 -0.125q0.1875 0 0.296875 0.125q0.125 0.125 0.125 0.421875l0 1.859375q0 0.296875 -0.125 0.4375q-0.109375 0.125 -0.296875 0.125q-0.15625 0 -0.28125 -0.109375q-0.109375 -0.125 -0.125 -0.390625q-0.0625 -0.6875 -0.921875 -1.3125q-0.84375 -0.625 -2.28125 -0.625q-1.828125 0 -2.78125 1.140625q-0.953125 1.140625 -0.953125 2.625q0 1.59375 1.046875 2.625q1.046875 1.03125 2.703125 1.03125q0.96875 0 1.953125 -0.34375q1.0 -0.359375 1.796875 -1.140625q0.203125 -0.1875 0.359375 -0.1875q0.171875 0 0.28125 0.109375q0.109375 0.109375 0.109375 0.28125q0 0.40625 -0.984375 1.0625q-1.59375 1.046875 -3.546875 1.046875q-1.984375 0 -3.265625 -1.265625q-1.265625 -1.265625 -1.265625 -3.21875q0 -1.984375 1.296875 -3.28125q1.3125 -1.3125 3.296875 -1.3125q1.875 0 3.15625 1.125zm5.876953 -4.625l0 5.046875q0.78125 -0.859375 1.5 -1.203125q0.71875 -0.34375 1.609375 -0.34375q0.953125 0 1.625 0.34375q0.671875 0.328125 1.109375 1.03125q0.4531288 0.6875 0.4531288 1.46875l0 5.078125l0.921875 0q0.3125 0 0.421875 0.125q0.125 0.109375 0.125 0.296875q0 0.171875 -0.125 0.296875q-0.109375 0.109375 -0.421875 0.109375l-2.6562538 0q-0.3125 0 -0.4375 -0.109375q-0.125 -0.125 -0.125 -0.296875q0 -0.1875 0.125 -0.296875q0.125 -0.125 0.4375 -0.125l0.90625 0l0 -5.015625q0 -0.890625 -0.640625 -1.484375q-0.640625 -0.609375 -1.78125 -0.609375q-0.890625 0 -1.53125 0.453125q-0.453125 0.3125 -1.515625 1.46875l0 5.1875l0.9375 0q0.28125 0 0.40625 0.125q0.140625 0.109375 0.140625 0.296875q0 0.171875 -0.140625 0.296875q-0.125 0.109375 -0.40625 0.109375l-2.6875 0q-0.28125 0 -0.421875 -0.109375q-0.125 -0.125 -0.125 -0.296875q0 -0.1875 0.125 -0.296875q0.140625 -0.125 0.421875 -0.125l0.9375 0l0 -10.59375l-1.109375 0q-0.296875 0 -0.421875 -0.109375q-0.125 -0.125 -0.125 -0.3125q0 -0.171875 0.125 -0.28125q0.125 -0.125 0.421875 -0.125l1.921875 0zm13.720707 3.796875l0 2.0625q1.609375 -1.4375 2.40625 -1.84375q0.796875 -0.421875 1.46875 -0.421875q0.734375 0 1.359375 0.5q0.625 0.484375 0.625 0.734375q0 0.1875 -0.125 0.3125q-0.109375 0.109375 -0.296875 0.109375q-0.09375 0 -0.171875 -0.03125q-0.0625 -0.03125 -0.25 -0.21875q-0.34375 -0.34375 -0.59375 -0.46875q-0.25 -0.125 -0.5 -0.125q-0.53125 0 -1.296875 0.4375q-0.75 0.421875 -2.625 2.09375l0 4.484375l3.640625 0q0.296875 0 0.421875 0.125q0.125 0.109375 0.125 0.296875q0 0.171875 -0.125 0.296875q-0.125 0.109375 -0.421875 0.109375l-6.4375 0q-0.296875 0 -0.421875 -0.109375q-0.125 -0.109375 -0.125 -0.296875q0 -0.15625 0.125 -0.265625q0.125 -0.125 0.421875 -0.125l1.984375 0l0 -6.828125l-1.515625 0q-0.296875 0 -0.421875 -0.109375q-0.125 -0.125 -0.125 -0.3125q0 -0.171875 0.125 -0.28125q0.125 -0.125 0.421875 -0.125l2.328125 0zm9.455078 7.625l6.296875 0l0 -0.3125q0 -0.296875 0.109375 -0.421875q0.125 -0.125 0.3125 -0.125q0.171875 0 0.28125 0.125q0.125 0.125 0.125 0.421875l0 1.140625l-7.921875 0l0 -1.21875q2.5 -2.234375 4.859375 -4.5625q1.109375 -1.078125 1.515625 -1.578125q0.40625 -0.515625 0.5625 -0.90625q0.15625 -0.390625 0.15625 -0.78125q0 -1.046875 -0.859375 -1.859375q-0.84375 -0.8125 -2.046875 -0.8125q-1.078125 0 -1.90625 0.625q-0.828125 0.609375 -1.078125 1.515625q-0.046875 0.234375 -0.140625 0.296875q-0.109375 0.09375 -0.265625 0.09375q-0.171875 0 -0.28125 -0.109375q-0.109375 -0.109375 -0.109375 -0.265625q0 -0.46875 0.5 -1.265625q0.515625 -0.796875 1.421875 -1.25q0.90625 -0.46875 1.84375 -0.46875q1.546875 0 2.640625 1.0625q1.109375 1.0625 1.109375 2.40625q0 0.578125 -0.1875 1.046875q-0.1875 0.46875 -0.640625 1.03125q-0.4375 0.5625 -1.59375 1.703125q-2.890625 2.84375 -4.703125 4.421875l0 0.046875zm29.066406 -2.59375l-5.4375 0l0 -0.953125l4.5625 -7.875l1.703125 0l0 8.0l0.6875 0q0.296875 0 0.421875 0.109375q0.125 0.109375 0.125 0.296875q0 0.1875 -0.125 0.3125q-0.125 0.109375 -0.421875 0.109375l-0.6875 0l0 2.59375l0.6875 0q0.296875 0 0.421875 0.125q0.125 0.109375 0.125 0.296875q0 0.171875 -0.125 0.296875q-0.125 0.109375 -0.421875 0.109375l-3.046875 0q-0.3125 0 -0.4375 -0.109375q-0.125 -0.125 -0.125 -0.296875q0 -0.1875 0.125 -0.296875q0.125 -0.125 0.4375 -0.125l1.53125 0l0 -2.59375zm0 -0.828125l0 -7.171875l-0.4375 0l-4.140625 7.171875l4.578125 0zm14.236328 -2.890625l0 2.03125q0 2.640625 -1.265625 4.1875q-0.984375 1.21875 -2.484375 1.21875q-0.71875 0 -1.359375 -0.296875q-0.640625 -0.28125 -1.09375 -0.796875q-0.28125 -0.328125 -0.625 -1.03125q-0.328125 -0.71875 -0.46875 -1.3125q-0.234375 -0.84375 -0.234375 -1.96875l0 -2.03125q0 -2.65625 1.265625 -4.203125q0.984375 -1.203125 2.484375 -1.203125q0.734375 0 1.359375 0.296875q0.640625 0.28125 1.09375 0.796875q0.296875 0.328125 0.625 1.046875q0.328125 0.703125 0.484375 1.296875q0.21875 0.84375 0.21875 1.96875zm-0.8125 0.109375q0 -1.15625 -0.328125 -2.15625q-0.328125 -1.015625 -0.75 -1.609375q-0.234375 -0.34375 -0.625 -0.578125q-0.5625 -0.34375 -1.25 -0.34375q-1.375 0 -2.15625 1.40625q-0.78125 1.40625 -0.78125 3.28125l0 1.8125q0 1.15625 0.328125 2.171875q0.328125 1.0 0.734375 1.59375q0.234375 0.328125 0.625 0.578125q0.5625 0.34375 1.265625 0.34375q1.375 0 2.15625 -1.40625q0.78125 -1.40625 0.78125 -3.28125l0 -1.8125zm23.816406 -4.03125l0 -0.359375l-5.890625 0l0 0.71875q0 0.296875 -0.109375 0.421875q-0.109375 0.125 -0.296875 0.125q-0.171875 0 -0.296875 -0.125q-0.109375 -0.125 -0.109375 -0.421875l0 -1.546875l7.53125 0l0 1.296875l-3.296875 10.546875q-0.078125 0.265625 -0.1875 0.34375q-0.109375 0.078125 -0.25 0.078125q-0.171875 0 -0.296875 -0.109375q-0.109375 -0.125 -0.109375 -0.28125q0 -0.09375 0.0625 -0.265625l3.25 -10.421875zm13.001953 3.921875l0 2.03125q0 2.640625 -1.265625 4.1875q-0.984375 1.21875 -2.484375 1.21875q-0.71875 0 -1.359375 -0.296875q-0.640625 -0.28125 -1.09375 -0.796875q-0.28125 -0.328125 -0.625 -1.03125q-0.328125 -0.71875 -0.46875 -1.3125q-0.234375 -0.84375 -0.234375 -1.96875l0 -2.03125q0 -2.65625 1.265625 -4.203125q0.984375 -1.203125 2.484375 -1.203125q0.734375 0 1.359375 0.296875q0.640625 0.28125 1.09375 0.796875q0.296875 0.328125 0.625 1.046875q0.328125 0.703125 0.484375 1.296875q0.21875 0.84375 0.21875 1.96875zm-0.8125 0.109375q0 -1.15625 -0.328125 -2.15625q-0.328125 -1.015625 -0.75 -1.609375q-0.234375 -0.34375 -0.625 -0.578125q-0.5625 -0.34375 -1.25 -0.34375q-1.375 0 -2.15625 1.40625q-0.78125 1.40625 -0.78125 3.28125l0 1.8125q0 1.15625 0.328125 2.171875q0.328125 1.0 0.734375 1.59375q0.234375 0.328125 0.625 0.578125q0.5625 0.34375 1.265625 0.34375q1.375 0 2.15625 -1.40625q0.78125 -1.40625 0.78125 -3.28125l0 -1.8125z" fill-rule="nonzero"/><path fill="#000000" d="m52.114788 233.19777l0 -0.28125q0 -0.296875 0.109375 -0.421875q0.125 -0.125 0.296875 -0.125q0.1875 0 0.296875 0.125q0.125 0.125 0.125 0.421875l0 1.859375q0 0.296875 -0.125 0.4375q-0.109375 0.125 -0.296875 0.125q-0.15625 0 -0.28125 -0.109375q-0.109375 -0.125 -0.125 -0.390625q-0.0625 -0.6875 -0.921875 -1.3125q-0.84375 -0.625 -2.28125 -0.625q-1.828125 0 -2.78125 1.140625q-0.953125 1.140625 -0.953125 2.625q0 1.59375 1.046875 2.625q1.046875 1.03125 2.703125 1.03125q0.96875 0 1.953125 -0.34375q1.0 -0.359375 1.796875 -1.140625q0.203125 -0.1875 0.359375 -0.1875q0.171875 0 0.28125 0.109375q0.109375 0.109375 0.109375 0.28125q0 0.40625 -0.984375 1.0625q-1.59375 1.046875 -3.546875 1.046875q-1.984375 0 -3.265625 -1.265625q-1.265625 -1.265625 -1.265625 -3.21875q0 -1.984375 1.296875 -3.28125q1.3125 -1.3125 3.296875 -1.3125q1.875 0 3.15625 1.125zm5.876953 -4.625l0 5.046875q0.78125 -0.859375 1.5 -1.203125q0.71875 -0.34375 1.609375 -0.34375q0.953125 0 1.625 0.34375q0.671875 0.328125 1.109375 1.03125q0.4531288 0.6875 0.4531288 1.46875l0 5.078125l0.921875 0q0.3125 0 0.421875 0.125q0.125 0.109375 0.125 0.296875q0 0.171875 -0.125 0.296875q-0.109375 0.109375 -0.421875 0.109375l-2.6562538 0q-0.3125 0 -0.4375 -0.109375q-0.125 -0.125 -0.125 -0.296875q0 -0.1875 0.125 -0.296875q0.125 -0.125 0.4375 -0.125l0.90625 0l0 -5.015625q0 -0.890625 -0.640625 -1.484375q-0.640625 -0.609375 -1.78125 -0.609375q-0.890625 0 -1.53125 0.453125q-0.453125 0.3125 -1.515625 1.46875l0 5.1875l0.9375 0q0.28125 0 0.40625 0.125q0.140625 0.109375 0.140625 0.296875q0 0.171875 -0.140625 0.296875q-0.125 0.109375 -0.40625 0.109375l-2.6875 0q-0.28125 0 -0.421875 -0.109375q-0.125 -0.125 -0.125 -0.296875q0 -0.1875 0.125 -0.296875q0.140625 -0.125 0.421875 -0.125l0.9375 0l0 -10.59375l-1.109375 0q-0.296875 0 -0.421875 -0.109375q-0.125 -0.125 -0.125 -0.3125q0 -0.171875 0.125 -0.28125q0.125 -0.125 0.421875 -0.125l1.921875 0zm13.720707 3.796875l0 2.0625q1.609375 -1.4375 2.40625 -1.84375q0.796875 -0.421875 1.46875 -0.421875q0.734375 0 1.359375 0.5q0.625 0.484375 0.625 0.734375q0 0.1875 -0.125 0.3125q-0.109375 0.109375 -0.296875 0.109375q-0.09375 0 -0.171875 -0.03125q-0.0625 -0.03125 -0.25 -0.21875q-0.34375 -0.34375 -0.59375 -0.46875q-0.25 -0.125 -0.5 -0.125q-0.53125 0 -1.296875 0.4375q-0.75 0.421875 -2.625 2.09375l0 4.484375l3.640625 0q0.296875 0 0.421875 0.125q0.125 0.109375 0.125 0.296875q0 0.171875 -0.125 0.296875q-0.125 0.109375 -0.421875 0.109375l-6.4375 0q-0.296875 0 -0.421875 -0.109375q-0.125 -0.109375 -0.125 -0.296875q0 -0.15625 0.125 -0.265625q0.125 -0.125 0.421875 -0.125l1.984375 0l0 -6.828125l-1.515625 0q-0.296875 0 -0.421875 -0.109375q-0.125 -0.125 -0.125 -0.3125q0 -0.171875 0.125 -0.28125q0.125 -0.125 0.421875 -0.125l2.328125 0zm14.517578 5.03125l-5.4375 0l0 -0.953125l4.5625 -7.875l1.703125 0l0 8.0l0.6875 0q0.296875 0 0.421875 0.109375q0.125 0.109375 0.125 0.296875q0 0.1875 -0.125 0.3125q-0.125 0.109375 -0.421875 0.109375l-0.6875 0l0 2.59375l0.6875 0q0.296875 0 0.421875 0.125q0.125 0.109375 0.125 0.296875q0 0.171875 -0.125 0.296875q-0.125 0.109375 -0.421875 0.109375l-3.046875 0q-0.3125 0 -0.4375 -0.109375q-0.125 -0.125 -0.125 -0.296875q0 -0.1875 0.125 -0.296875q0.125 -0.125 0.4375 -0.125l1.53125 0l0 -2.59375zm0 -0.828125l0 -7.171875l-0.4375 0l-4.140625 7.171875l4.578125 0zm20.035156 -0.9375q0.75 -1.125 1.546875 -1.65625q0.8125 -0.546875 1.8125 -0.546875q1.296875 0 2.3125 1.09375q1.015625 1.09375 1.015625 2.6875q0 1.46875 -0.921875 2.6875q-0.921875 1.21875 -2.5625 1.21875q-1.0625 0 -1.984375 -0.65625q-0.921875 -0.65625 -1.453125 -2.015625q-0.65625 -1.6875 -0.65625 -3.734375q0 -1.546875 0.625 -2.875q0.46875 -1.03125 1.25 -1.796875q0.78125 -0.78125 1.8125 -1.265625q1.046875 -0.5 2.25 -0.5q0.828125 0 1.375 0.328125q0.234375 0.140625 0.234375 0.390625q0 0.171875 -0.109375 0.296875q-0.109375 0.109375 -0.28125 0.109375q-0.125 0 -0.296875 -0.109375q-0.40625 -0.1875 -1.0 -0.1875q-1.90625 0 -3.46875 1.640625q-1.5625 1.625 -1.5625 3.890625q0 0.3125 0.0625 1.0zm0.171875 1.359375q0.375 1.78125 1.171875 2.546875q0.796875 0.75 1.875 0.75q1.09375 0 1.875 -0.84375q0.78125 -0.859375 0.78125 -2.234375q0 -1.28125 -0.78125 -2.109375q-0.78125 -0.84375 -1.765625 -0.84375q-0.953125 0 -1.828125 0.8125q-0.59375 0.53125 -1.328125 1.921875zm18.033203 -3.3125l0 2.03125q0 2.640625 -1.265625 4.1875q-0.984375 1.21875 -2.484375 1.21875q-0.71875 0 -1.359375 -0.296875q-0.640625 -0.28125 -1.09375 -0.796875q-0.28125 -0.328125 -0.625 -1.03125q-0.328125 -0.71875 -0.46875 -1.3125q-0.234375 -0.84375 -0.234375 -1.96875l0 -2.03125q0 -2.65625 1.265625 -4.203125q0.984375 -1.203125 2.484375 -1.203125q0.734375 0 1.359375 0.296875q0.640625 0.28125 1.09375 0.796875q0.296875 0.328125 0.625 1.046875q0.328125 0.703125 0.484375 1.296875q0.21875 0.84375 0.21875 1.96875zm-0.8125 0.109375q0 -1.15625 -0.328125 -2.15625q-0.328125 -1.015625 -0.75 -1.609375q-0.234375 -0.34375 -0.625 -0.578125q-0.5625 -0.34375 -1.25 -0.34375q-1.375 0 -2.15625 1.40625q-0.78125 1.40625 -0.78125 3.28125l0 1.8125q0 1.15625 0.328125 2.171875q0.328125 1.0 0.734375 1.59375q0.234375 0.328125 0.625 0.578125q0.5625 0.34375 1.265625 0.34375q1.375 0 2.15625 -1.40625q0.78125 -1.40625 0.78125 -3.28125l0 -1.8125zm22.738281 0.671875q1.03125 0.5 1.546875 1.3125q0.515625 0.8125 0.515625 1.75q0 1.453125 -1.09375 2.53125q-1.09375 1.0625 -2.65625 1.0625q-1.5625 0 -2.65625 -1.0625q-1.09375 -1.078125 -1.09375 -2.53125q0 -0.921875 0.515625 -1.734375q0.53125 -0.8125 1.578125 -1.328125q-0.90625 -0.515625 -1.3125 -1.078125q-0.5625 -0.78125 -0.5625 -1.75q0 -1.34375 1.03125 -2.34375q1.046875 -1.015625 2.5 -1.015625q1.484375 0 2.515625 1.015625q1.03125 1.0 1.03125 2.34375q0 0.96875 -0.5625 1.75q-0.40625 0.5625 -1.296875 1.078125zm1.03125 -2.796875q0 -1.046875 -0.796875 -1.796875q-0.78125 -0.765625 -1.921875 -0.765625q-1.140625 0 -1.921875 0.765625q-0.78125 0.75 -0.78125 1.796875q0 0.953125 0.765625 1.671875q0.78125 0.71875 1.9375 0.71875q1.15625 0 1.9375 -0.71875q0.78125 -0.71875 0.78125 -1.671875zm0.21875 5.890625q0 -1.09375 -0.84375 -1.890625q-0.84375 -0.796875 -2.09375 -0.796875q-1.25 0 -2.09375 0.796875q-0.828125 0.796875 -0.828125 1.875q0 1.109375 0.84375 1.9375q0.84375 0.8125 2.078125 0.8125q1.25 0 2.09375 -0.8125q0.84375 -0.828125 0.84375 -1.921875zm12.830078 -3.875l0 2.03125q0 2.640625 -1.265625 4.1875q-0.984375 1.21875 -2.484375 1.21875q-0.71875 0 -1.359375 -0.296875q-0.640625 -0.28125 -1.09375 -0.796875q-0.28125 -0.328125 -0.625 -1.03125q-0.328125 -0.71875 -0.46875 -1.3125q-0.234375 -0.84375 -0.234375 -1.96875l0 -2.03125q0 -2.65625 1.265625 -4.203125q0.984375 -1.203125 2.484375 -1.203125q0.734375 0 1.359375 0.296875q0.640625 0.28125 1.09375 0.796875q0.296875 0.328125 0.625 1.046875q0.328125 0.703125 0.484375 1.296875q0.21875 0.84375 0.21875 1.96875zm-0.8125 0.109375q0 -1.15625 -0.328125 -2.15625q-0.328125 -1.015625 -0.75 -1.609375q-0.234375 -0.34375 -0.625 -0.578125q-0.5625 -0.34375 -1.25 -0.34375q-1.375 0 -2.15625 1.40625q-0.78125 1.40625 -0.78125 3.28125l0 1.8125q0 1.15625 0.328125 2.171875q0.328125 1.0 0.734375 1.59375q0.234375 0.328125 0.625 0.578125q0.5625 0.34375 1.265625 0.34375q1.375 0 2.15625 -1.40625q0.78125 -1.40625 0.78125 -3.28125l0 -1.8125z" fill-rule="nonzero"/></g><g filter="url(#shadowFilter-p.7)"><use xlink:href="#p.7" transform="matrix(1.0 0.0 0.0 1.0 0.0 2.0)"/></g><defs><filter id="shadowFilter-p.7" filterUnits="userSpaceOnUse"><feGaussianBlur in="SourceAlpha" stdDeviation="2.0" result="blur"/><feComponentTransfer in="blur" color-interpolation-filters="sRGB"><feFuncR type="linear" slope="0" intercept="0.0"/><feFuncG type="linear" slope="0" intercept="0.0"/><feFuncB type="linear" slope="0" intercept="0.0"/><feFuncA type="linear" slope="0.5" intercept="0"/></feComponentTransfer></filter></defs><g id="p.7"><path fill="#ffffff" d="m477.41995 97.69554l112.44095 0l0 41.480316l-112.44095 0z" fill-rule="evenodd"/><path stroke="#000000" stroke-width="1.0" stroke-linejoin="round" stroke-linecap="butt" d="m477.41995 97.69554l112.44095 0l0 41.480316l-112.44095 0z" fill-rule="evenodd"/><path fill="#000000" d="m505.82254 105.4882l0 -0.15625q0 -0.171875 0.0625 -0.234375q0.0625 -0.078125 0.15625 -0.078125q0.109375 0 0.171875 0.078125q0.0625 0.0625 0.0625 0.234375l0 1.015625q0 0.171875 -0.0625 0.25q-0.0625 0.0625 -0.171875 0.0625q-0.09375 0 -0.15625 -0.0625q-0.0625 -0.0625 -0.0625 -0.203125q-0.03125 -0.390625 -0.5 -0.734375q-0.46875 -0.34375 -1.265625 -0.34375q-1.015625 0 -1.53125 0.640625q-0.515625 0.625 -0.515625 1.4375q0 0.875 0.5625 1.4375q0.578125 0.5625 1.5 0.5625q0.515625 0 1.0625 -0.1875q0.546875 -0.1875 0.984375 -0.625q0.125 -0.109375 0.203125 -0.109375q0.09375 0 0.15625 0.0625q0.0625 0.0625 0.0625 0.15625q0 0.234375 -0.546875 0.59375q-0.875 0.5625 -1.953125 0.5625q-1.078125 0 -1.78125 -0.6875q-0.703125 -0.703125 -0.703125 -1.765625q0 -1.09375 0.71875 -1.8125q0.71875 -0.71875 1.796875 -0.71875q1.046875 0 1.75 0.625zm3.2260742 -2.546875l0 2.765625q0.4375 -0.46875 0.828125 -0.65625q0.390625 -0.1875 0.890625 -0.1875q0.515625 0 0.875 0.1875q0.37503052 0.1875 0.6250305 0.578125q0.25 0.375 0.25 0.796875l0 2.796875l0.5 0q0.171875 0 0.234375 0.0625q0.0625 0.0625 0.0625 0.171875q0 0.09375 -0.0625 0.15625q-0.0625 0.0625 -0.234375 0.0625l-1.4687805 0q-0.15625 0 -0.234375 -0.0625q-0.0625 -0.0625 -0.0625 -0.15625q0 -0.109375 0.0625 -0.171875q0.078125 -0.0625 0.234375 -0.0625l0.5156555 0l0 -2.765625q0 -0.484375 -0.35940552 -0.8125q-0.34375 -0.328125 -0.984375 -0.328125q-0.484375 0 -0.84375 0.234375q-0.25 0.171875 -0.828125 0.8125l0 2.859375l0.515625 0q0.15625 0 0.21875 0.0625q0.078125 0.0625 0.078125 0.171875q0 0.09375 -0.078125 0.15625q-0.0625 0.0625 -0.21875 0.0625l-1.46875 0q-0.171875 0 -0.25 -0.0625q-0.0625 -0.0625 -0.0625 -0.15625q0 -0.109375 0.0625 -0.171875q0.078125 -0.0625 0.25 -0.0625l0.5 0l0 -5.828125l-0.609375 0q-0.15625 0 -0.234375 -0.0625q-0.0625 -0.0625 -0.0625 -0.171875q0 -0.09375 0.0625 -0.15625q0.078125 -0.0625 0.234375 -0.0625l1.0625 0zm7.5542297 2.078125l0 1.140625q0.875 -0.796875 1.3125 -1.015625q0.4375 -0.234375 0.8125 -0.234375q0.40625 0 0.75 0.28125q0.34375 0.265625 0.34375 0.40625q0 0.09375 -0.078125 0.171875q-0.0625 0.0625 -0.15625 0.0625q-0.0625 0 -0.09375 -0.015625q-0.03125 -0.03125 -0.140625 -0.125q-0.1875 -0.1875 -0.328125 -0.25q-0.140625 -0.078125 -0.265625 -0.078125q-0.296875 0 -0.71875 0.234375q-0.421875 0.234375 -1.4375 1.15625l0 2.46875l2.0 0q0.15625 0 0.21875 0.0625q0.078125 0.0625 0.078125 0.171875q0 0.09375 -0.078125 0.15625q-0.0625 0.0625 -0.21875 0.0625l-3.546875 0q-0.15625 0 -0.234375 -0.0625q-0.0625 -0.0625 -0.0625 -0.15625q0 -0.09375 0.0625 -0.15625q0.0625 -0.0625 0.234375 -0.0625l1.09375 0l0 -3.75l-0.828125 0q-0.171875 0 -0.25 -0.0625q-0.0625 -0.078125 -0.0625 -0.171875q0 -0.09375 0.0625 -0.15625q0.078125 -0.078125 0.25 -0.078125l1.28125 0zm7.366699 -2.171875l0 6.375l1.546875 0q0.15625 0 0.21875 0.0625q0.078125 0.0625 0.078125 0.171875q0 0.09375 -0.078125 0.15625q-0.0625 0.0625 -0.21875 0.0625l-3.546875 0q-0.171875 0 -0.25 -0.0625q-0.0625 -0.0625 -0.0625 -0.15625q0 -0.109375 0.0625 -0.171875q0.078125 -0.0625 0.25 -0.0625l1.546875 0l0 -5.75l-1.484375 0.453125q-0.09375 0.03125 -0.15625 0.03125q-0.078125 0 -0.140625 -0.0625q-0.0625 -0.0625 -0.0625 -0.15625q0 -0.078125 0.046875 -0.15625q0.046875 -0.046875 0.1875 -0.09375l2.0625 -0.640625zm13.905273 3.15625q0.609375 0.28125 0.9375 0.765625q0.328125 0.484375 0.328125 1.015625q0 0.8125 -0.65625 1.4375q-0.65625 0.609375 -1.640625 0.609375q-0.578125 0 -1.203125 -0.234375q-0.625 -0.25 -0.875 -0.515625q-0.078125 -0.078125 -0.078125 -0.1875q0 -0.078125 0.0625 -0.140625q0.0625 -0.0625 0.140625 -0.0625q0.09375 0 0.203125 0.078125q0.828125 0.609375 1.765625 0.609375q0.78125 0 1.296875 -0.484375q0.53125 -0.484375 0.53125 -1.09375q0 -0.40625 -0.265625 -0.78125q-0.25 -0.390625 -0.734375 -0.609375q-0.484375 -0.234375 -0.984375 -0.234375q-0.171875 0 -0.25 -0.0625q-0.0625 -0.0625 -0.0625 -0.15625q0 -0.09375 0.0625 -0.15625q0.078125 -0.078125 0.21875 -0.078125l0.375 0.015625q0.609375 0 1.0 -0.375q0.40625 -0.375 0.40625 -0.859375q0 -0.5 -0.421875 -0.890625q-0.40625 -0.390625 -1.078125 -0.390625q-0.46875 0 -0.859375 0.171875q-0.390625 0.15625 -0.625 0.4375q-0.09375 0.109375 -0.140625 0.140625q-0.03125 0.015625 -0.09375 0.015625q-0.09375 0 -0.15625 -0.0625q-0.0625 -0.0625 -0.0625 -0.15625q0 -0.21875 0.46875 -0.546875q0.640625 -0.453125 1.46875 -0.453125q0.859375 0 1.40625 0.515625q0.546875 0.515625 0.546875 1.21875q0 0.453125 -0.265625 0.859375q-0.265625 0.40625 -0.765625 0.640625zm7.741699 -0.25l0 1.109375q0 1.453125 -0.703125 2.3125q-0.53125 0.65625 -1.359375 0.65625q-0.40625 0 -0.765625 -0.15625q-0.34375 -0.15625 -0.59375 -0.4375q-0.140625 -0.1875 -0.328125 -0.578125q-0.1875 -0.390625 -0.265625 -0.71875q-0.125 -0.453125 -0.125 -1.078125l0 -1.109375q0 -1.46875 0.6875 -2.3125q0.546875 -0.671875 1.375 -0.671875q0.40625 0 0.75 0.171875q0.34375 0.15625 0.59375 0.4375q0.15625 0.171875 0.34375 0.578125q0.1875 0.390625 0.265625 0.703125q0.125 0.46875 0.125 1.09375zm-0.453125 0.046875q0 -0.625 -0.1875 -1.171875q-0.171875 -0.5625 -0.40625 -0.890625q-0.125 -0.1875 -0.34375 -0.3125q-0.3125 -0.203125 -0.6875 -0.203125q-0.75 0 -1.1875 0.78125q-0.421875 0.765625 -0.421875 1.796875l0 1.0q0 0.640625 0.171875 1.203125q0.1875 0.546875 0.40625 0.875q0.140625 0.171875 0.34375 0.3125q0.3125 0.1875 0.703125 0.1875q0.75 0 1.171875 -0.765625q0.4375 -0.78125 0.4375 -1.8125l0 -1.0zm12.420898 1.984375l-2.984375 0l0 -0.515625l2.5 -4.328125l0.9375 0l0 4.390625l0.375 0q0.171875 0 0.234375 0.0625q0.078125 0.0625 0.078125 0.171875q0 0.09375 -0.078125 0.15625q-0.0625 0.0625 -0.234375 0.0625l-0.375 0l0 1.4375l0.375 0q0.171875 0 0.234375 0.0625q0.078125 0.0625 0.078125 0.171875q0 0.09375 -0.078125 0.15625q-0.0625 0.0625 -0.234375 0.0625l-1.671875 0q-0.171875 0 -0.25 -0.0625q-0.0625 -0.0625 -0.0625 -0.15625q0 -0.109375 0.0625 -0.171875q0.078125 -0.0625 0.25 -0.0625l0.84375 0l0 -1.4375zm0 -0.453125l0 -3.9375l-0.234375 0l-2.28125 3.9375l2.515625 0zm7.835449 -1.578125l0 1.109375q0 1.453125 -0.703125 2.3125q-0.53125 0.65625 -1.359375 0.65625q-0.40625 0 -0.765625 -0.15625q-0.34375 -0.15625 -0.59375 -0.4375q-0.140625 -0.1875 -0.328125 -0.578125q-0.1875 -0.390625 -0.265625 -0.71875q-0.125 -0.453125 -0.125 -1.078125l0 -1.109375q0 -1.46875 0.6875 -2.3125q0.546875 -0.671875 1.375 -0.671875q0.40625 0 0.75 0.171875q0.34375 0.15625 0.59375 0.4375q0.15625 0.171875 0.34375 0.578125q0.1875 0.390625 0.265625 0.703125q0.125 0.46875 0.125 1.09375zm-0.453125 0.046875q0 -0.625 -0.1875 -1.171875q-0.171875 -0.5625 -0.40625 -0.890625q-0.125 -0.1875 -0.34375 -0.3125q-0.3125 -0.203125 -0.6875 -0.203125q-0.75 0 -1.1875 0.78125q-0.421875 0.765625 -0.421875 1.796875l0 1.0q0 0.640625 0.171875 1.203125q0.1875 0.546875 0.40625 0.875q0.140625 0.171875 0.34375 0.3125q0.3125 0.1875 0.703125 0.1875q0.75 0 1.171875 -0.765625q0.4375 -0.78125 0.4375 -1.8125l0 -1.0z" fill-rule="nonzero"/><path fill="#000000" d="m505.82254 124.4882l0 -0.15625q0 -0.171875 0.0625 -0.234375q0.0625 -0.078125 0.15625 -0.078125q0.109375 0 0.171875 0.078125q0.0625 0.0625 0.0625 0.234375l0 1.015625q0 0.171875 -0.0625 0.25q-0.0625 0.0625 -0.171875 0.0625q-0.09375 0 -0.15625 -0.0625q-0.0625 -0.0625 -0.0625 -0.203125q-0.03125 -0.390625 -0.5 -0.734375q-0.46875 -0.34375 -1.265625 -0.34375q-1.015625 0 -1.53125 0.640625q-0.515625 0.625 -0.515625 1.4375q0 0.875 0.5625 1.4375q0.578125 0.5624924 1.5 0.5624924q0.515625 0 1.0625 -0.1875q0.546875 -0.1875 0.984375 -0.6249924q0.125 -0.109375 0.203125 -0.109375q0.09375 0 0.15625 0.0625q0.0625 0.0625 0.0625 0.15625q0 0.234375 -0.546875 0.5937424q-0.875 0.5625 -1.953125 0.5625q-1.078125 0 -1.78125 -0.6875q-0.703125 -0.7031174 -0.703125 -1.7656174q0 -1.09375 0.71875 -1.8125q0.71875 -0.71875 1.796875 -0.71875q1.046875 0 1.75 0.625zm3.2260742 -2.546875l0 2.765625q0.4375 -0.46875 0.828125 -0.65625q0.390625 -0.1875 0.890625 -0.1875q0.515625 0 0.875 0.1875q0.37503052 0.1875 0.6250305 0.578125q0.25 0.375 0.25 0.796875l0 2.7968674l0.5 0q0.171875 0 0.234375 0.0625q0.0625 0.0625 0.0625 0.171875q0 0.09375 -0.0625 0.15625q-0.0625 0.0625 -0.234375 0.0625l-1.4687805 0q-0.15625 0 -0.234375 -0.0625q-0.0625 -0.0625 -0.0625 -0.15625q0 -0.109375 0.0625 -0.171875q0.078125 -0.0625 0.234375 -0.0625l0.5156555 0l0 -2.7656174q0 -0.484375 -0.35940552 -0.8125q-0.34375 -0.328125 -0.984375 -0.328125q-0.484375 0 -0.84375 0.234375q-0.25 0.171875 -0.828125 0.8125l0 2.8593674l0.515625 0q0.15625 0 0.21875 0.0625q0.078125 0.0625 0.078125 0.171875q0 0.09375 -0.078125 0.15625q-0.0625 0.0625 -0.21875 0.0625l-1.46875 0q-0.171875 0 -0.25 -0.0625q-0.0625 -0.0625 -0.0625 -0.15625q0 -0.109375 0.0625 -0.171875q0.078125 -0.0625 0.25 -0.0625l0.5 0l0 -5.8281174l-0.609375 0q-0.15625 0 -0.234375 -0.0625q-0.0625 -0.0625 -0.0625 -0.171875q0 -0.09375 0.0625 -0.15625q0.078125 -0.0625 0.234375 -0.0625l1.0625 0zm7.5542297 2.078125l0 1.140625q0.875 -0.796875 1.3125 -1.015625q0.4375 -0.234375 0.8125 -0.234375q0.40625 0 0.75 0.28125q0.34375 0.265625 0.34375 0.40625q0 0.09375 -0.078125 0.171875q-0.0625 0.0625 -0.15625 0.0625q-0.0625 0 -0.09375 -0.015625q-0.03125 -0.03125 -0.140625 -0.125q-0.1875 -0.1875 -0.328125 -0.25q-0.140625 -0.078125 -0.265625 -0.078125q-0.296875 0 -0.71875 0.234375q-0.421875 0.234375 -1.4375 1.15625l0 2.4687424l2.0 0q0.15625 0 0.21875 0.0625q0.078125 0.0625 0.078125 0.171875q0 0.09375 -0.078125 0.15625q-0.0625 0.0625 -0.21875 0.0625l-3.546875 0q-0.15625 0 -0.234375 -0.0625q-0.0625 -0.0625 -0.0625 -0.15625q0 -0.09375 0.0625 -0.15625q0.0625 -0.0625 0.234375 -0.0625l1.09375 0l0 -3.7499924l-0.828125 0q-0.171875 0 -0.25 -0.0625q-0.0625 -0.078125 -0.0625 -0.171875q0 -0.09375 0.0625 -0.15625q0.078125 -0.078125 0.25 -0.078125l1.28125 0zm5.194824 4.2031174l3.46875 0l0 -0.171875q0 -0.17186737 0.0625 -0.23436737q0.0625 -0.0625 0.15625 -0.0625q0.109375 0 0.171875 0.0625q0.0625 0.0625 0.0625 0.23436737l0 0.625l-4.359375 0l0 -0.671875q1.375 -1.2343674 2.671875 -2.5156174q0.609375 -0.59375 0.828125 -0.859375q0.234375 -0.28125 0.3125 -0.5q0.078125 -0.21875 0.078125 -0.421875q0 -0.578125 -0.46875 -1.03125q-0.453125 -0.453125 -1.125 -0.453125q-0.59375 0 -1.046875 0.34375q-0.453125 0.34375 -0.59375 0.84375q-0.03125 0.125 -0.078125 0.15625q-0.0625 0.0625 -0.140625 0.0625q-0.09375 0 -0.15625 -0.0625q-0.0625 -0.0625 -0.0625 -0.15625q0 -0.25 0.28125 -0.6875q0.28125 -0.4375 0.78125 -0.6875q0.5 -0.265625 1.015625 -0.265625q0.84375 0 1.453125 0.59375q0.609375 0.578125 0.609375 1.328125q0 0.3125 -0.109375 0.578125q-0.09375 0.25 -0.34375 0.5625q-0.25 0.296875 -0.875 0.921875q-1.59375 1.578125 -2.59375 2.4374924l0 0.03125zm15.983398 -1.4374924l-2.984375 0l0 -0.515625l2.5 -4.328125l0.9375 0l0 4.390625l0.375 0q0.171875 0 0.234375 0.0625q0.078125 0.0625 0.078125 0.171875q0 0.09375 -0.078125 0.15625q-0.0625 0.0625 -0.234375 0.0625l-0.375 0l0 1.4374924l0.375 0q0.171875 0 0.234375 0.0625q0.078125 0.0625 0.078125 0.171875q0 0.09375 -0.078125 0.15625q-0.0625 0.0625 -0.234375 0.0625l-1.671875 0q-0.171875 0 -0.25 -0.0625q-0.0625 -0.0625 -0.0625 -0.15625q0 -0.109375 0.0625 -0.171875q0.078125 -0.0625 0.25 -0.0625l0.84375 0l0 -1.4374924zm0 -0.453125l0 -3.9375l-0.234375 0l-2.28125 3.9375l2.515625 0zm7.835449 -1.578125l0 1.109375q0 1.453125 -0.703125 2.3124924q-0.53125 0.65625 -1.359375 0.65625q-0.40625 0 -0.765625 -0.15625q-0.34375 -0.15625 -0.59375 -0.4375q-0.140625 -0.1875 -0.328125 -0.5781174q-0.1875 -0.390625 -0.265625 -0.71875q-0.125 -0.453125 -0.125 -1.078125l0 -1.109375q0 -1.46875 0.6875 -2.3125q0.546875 -0.671875 1.375 -0.671875q0.40625 0 0.75 0.171875q0.34375 0.15625 0.59375 0.4375q0.15625 0.171875 0.34375 0.578125q0.1875 0.390625 0.265625 0.703125q0.125 0.46875 0.125 1.09375zm-0.453125 0.046875q0 -0.625 -0.1875 -1.171875q-0.171875 -0.5625 -0.40625 -0.890625q-0.125 -0.1875 -0.34375 -0.3125q-0.3125 -0.203125 -0.6875 -0.203125q-0.75 0 -1.1875 0.78125q-0.421875 0.765625 -0.421875 1.796875l0 1.0q0 0.640625 0.171875 1.203125q0.1875 0.546875 0.40625 0.875q0.140625 0.17186737 0.34375 0.31249237q0.3125 0.1875 0.703125 0.1875q0.75 0 1.171875 -0.7656174q0.4375 -0.78125 0.4375 -1.8125l0 -1.0zm13.092773 -2.203125l0 -0.203125l-3.234375 0l0 0.390625q0 0.171875 -0.0625 0.234375q-0.046875 0.0625 -0.15625 0.0625q-0.09375 0 -0.15625 -0.0625q-0.0625 -0.0625 -0.0625 -0.234375l0 -0.84375l4.140625 0l0 0.71875l-1.828125 5.7968674q-0.03125 0.140625 -0.09375 0.1875q-0.0625 0.046875 -0.140625 0.046875q-0.09375 0 -0.15625 -0.0625q-0.0625 -0.078125 -0.0625 -0.15625q0 -0.0625 0.03125 -0.15625l1.78125 -5.7187424zm7.163574 2.15625l0 1.109375q0 1.453125 -0.703125 2.3124924q-0.53125 0.65625 -1.359375 0.65625q-0.40625 0 -0.765625 -0.15625q-0.34375 -0.15625 -0.59375 -0.4375q-0.140625 -0.1875 -0.328125 -0.5781174q-0.1875 -0.390625 -0.265625 -0.71875q-0.125 -0.453125 -0.125 -1.078125l0 -1.109375q0 -1.46875 0.6875 -2.3125q0.546875 -0.671875 1.375 -0.671875q0.40625 0 0.75 0.171875q0.34375 0.15625 0.59375 0.4375q0.15625 0.171875 0.34375 0.578125q0.1875 0.390625 0.265625 0.703125q0.125 0.46875 0.125 1.09375zm-0.453125 0.046875q0 -0.625 -0.1875 -1.171875q-0.171875 -0.5625 -0.40625 -0.890625q-0.125 -0.1875 -0.34375 -0.3125q-0.3125 -0.203125 -0.6875 -0.203125q-0.75 0 -1.1875 0.78125q-0.421875 0.765625 -0.421875 1.796875l0 1.0q0 0.640625 0.171875 1.203125q0.1875 0.546875 0.40625 0.875q0.140625 0.17186737 0.34375 0.31249237q0.3125 0.1875 0.703125 0.1875q0.75 0 1.171875 -0.7656174q0.4375 -0.78125 0.4375 -1.8125l0 -1.0z" fill-rule="nonzero"/></g><g filter="url(#shadowFilter-p.8)"><use xlink:href="#p.8" transform="matrix(1.0 0.0 0.0 1.0 0.0 2.0)"/></g><defs><filter id="shadowFilter-p.8" filterUnits="userSpaceOnUse"><feGaussianBlur in="SourceAlpha" stdDeviation="2.0" result="blur"/><feComponentTransfer in="blur" color-interpolation-filters="sRGB"><feFuncR type="linear" slope="0" intercept="0.0"/><feFuncG type="linear" slope="0" intercept="0.0"/><feFuncB type="linear" slope="0" intercept="0.0"/><feFuncA type="linear" slope="0.5" intercept="0"/></feComponentTransfer></filter></defs><g id="p.8"><path fill="#ffffff" d="m477.41995 164.38583l112.44095 0l0 41.4803l-112.44095 0z" fill-rule="evenodd"/><path stroke="#000000" stroke-width="1.0" stroke-linejoin="round" stroke-linecap="butt" d="m477.41995 164.38583l112.44095 0l0 41.4803l-112.44095 0z" fill-rule="evenodd"/><path fill="#000000" d="m505.82254 181.67848l0 -0.15625q0 -0.171875 0.0625 -0.234375q0.0625 -0.078125 0.15625 -0.078125q0.109375 0 0.171875 0.078125q0.0625 0.0625 0.0625 0.234375l0 1.015625q0 0.171875 -0.0625 0.25q-0.0625 0.0625 -0.171875 0.0625q-0.09375 0 -0.15625 -0.0625q-0.0625 -0.0625 -0.0625 -0.203125q-0.03125 -0.390625 -0.5 -0.734375q-0.46875 -0.34375 -1.265625 -0.34375q-1.015625 0 -1.53125 0.640625q-0.515625 0.625 -0.515625 1.4375q0 0.875 0.5625 1.4375q0.578125 0.5625 1.5 0.5625q0.515625 0 1.0625 -0.1875q0.546875 -0.1875 0.984375 -0.625q0.125 -0.109375 0.203125 -0.109375q0.09375 0 0.15625 0.0625q0.0625 0.0625 0.0625 0.15625q0 0.234375 -0.546875 0.59375q-0.875 0.5625 -1.953125 0.5625q-1.078125 0 -1.78125 -0.6875q-0.703125 -0.703125 -0.703125 -1.765625q0 -1.09375 0.71875 -1.8125q0.71875 -0.71875 1.796875 -0.71875q1.046875 0 1.75 0.625zm3.2260742 -2.546875l0 2.765625q0.4375 -0.46875 0.828125 -0.65625q0.390625 -0.1875 0.890625 -0.1875q0.515625 0 0.875 0.1875q0.37503052 0.1875 0.6250305 0.578125q0.25 0.375 0.25 0.796875l0 2.796875l0.5 0q0.171875 0 0.234375 0.0625q0.0625 0.0625 0.0625 0.171875q0 0.09375 -0.0625 0.15625q-0.0625 0.0625 -0.234375 0.0625l-1.4687805 0q-0.15625 0 -0.234375 -0.0625q-0.0625 -0.0625 -0.0625 -0.15625q0 -0.109375 0.0625 -0.171875q0.078125 -0.0625 0.234375 -0.0625l0.5156555 0l0 -2.765625q0 -0.484375 -0.35940552 -0.8125q-0.34375 -0.328125 -0.984375 -0.328125q-0.484375 0 -0.84375 0.234375q-0.25 0.171875 -0.828125 0.8125l0 2.859375l0.515625 0q0.15625 0 0.21875 0.0625q0.078125 0.0625 0.078125 0.171875q0 0.09375 -0.078125 0.15625q-0.0625 0.0625 -0.21875 0.0625l-1.46875 0q-0.171875 0 -0.25 -0.0625q-0.0625 -0.0625 -0.0625 -0.15625q0 -0.109375 0.0625 -0.171875q0.078125 -0.0625 0.25 -0.0625l0.5 0l0 -5.828125l-0.609375 0q-0.15625 0 -0.234375 -0.0625q-0.0625 -0.0625 -0.0625 -0.171875q0 -0.09375 0.0625 -0.15625q0.078125 -0.0625 0.234375 -0.0625l1.0625 0zm7.5542297 2.078125l0 1.140625q0.875 -0.796875 1.3125 -1.015625q0.4375 -0.234375 0.8125 -0.234375q0.40625 0 0.75 0.28125q0.34375 0.265625 0.34375 0.40625q0 0.09375 -0.078125 0.171875q-0.0625 0.0625 -0.15625 0.0625q-0.0625 0 -0.09375 -0.015625q-0.03125 -0.03125 -0.140625 -0.125q-0.1875 -0.1875 -0.328125 -0.25q-0.140625 -0.078125 -0.265625 -0.078125q-0.296875 0 -0.71875 0.234375q-0.421875 0.234375 -1.4375 1.15625l0 2.46875l2.0 0q0.15625 0 0.21875 0.0625q0.078125 0.0625 0.078125 0.171875q0 0.09375 -0.078125 0.15625q-0.0625 0.0625 -0.21875 0.0625l-3.546875 0q-0.15625 0 -0.234375 -0.0625q-0.0625 -0.0625 -0.0625 -0.15625q0 -0.09375 0.0625 -0.15625q0.0625 -0.0625 0.234375 -0.0625l1.09375 0l0 -3.75l-0.828125 0q-0.171875 0 -0.25 -0.0625q-0.0625 -0.078125 -0.0625 -0.171875q0 -0.09375 0.0625 -0.15625q0.078125 -0.078125 0.25 -0.078125l1.28125 0zm5.194824 4.203125l3.46875 0l0 -0.171875q0 -0.171875 0.0625 -0.234375q0.0625 -0.0625 0.15625 -0.0625q0.109375 0 0.171875 0.0625q0.0625 0.0625 0.0625 0.234375l0 0.625l-4.359375 0l0 -0.671875q1.375 -1.234375 2.671875 -2.515625q0.609375 -0.59375 0.828125 -0.859375q0.234375 -0.28125 0.3125 -0.5q0.078125 -0.21875 0.078125 -0.421875q0 -0.578125 -0.46875 -1.03125q-0.453125 -0.453125 -1.125 -0.453125q-0.59375 0 -1.046875 0.34375q-0.453125 0.34375 -0.59375 0.84375q-0.03125 0.125 -0.078125 0.15625q-0.0625 0.0625 -0.140625 0.0625q-0.09375 0 -0.15625 -0.0625q-0.0625 -0.0625 -0.0625 -0.15625q0 -0.25 0.28125 -0.6875q0.28125 -0.4375 0.78125 -0.6875q0.5 -0.265625 1.015625 -0.265625q0.84375 0 1.453125 0.59375q0.609375 0.578125 0.609375 1.328125q0 0.3125 -0.109375 0.578125q-0.09375 0.25 -0.34375 0.5625q-0.25 0.296875 -0.875 0.921875q-1.59375 1.578125 -2.59375 2.4375l0 0.03125zm15.983398 -1.4375l-2.984375 0l0 -0.515625l2.5 -4.328125l0.9375 0l0 4.390625l0.375 0q0.171875 0 0.234375 0.0625q0.078125 0.0625 0.078125 0.171875q0 0.09375 -0.078125 0.15625q-0.0625 0.0625 -0.234375 0.0625l-0.375 0l0 1.4375l0.375 0q0.171875 0 0.234375 0.0625q0.078125 0.0625 0.078125 0.171875q0 0.09375 -0.078125 0.15625q-0.0625 0.0625 -0.234375 0.0625l-1.671875 0q-0.171875 0 -0.25 -0.0625q-0.0625 -0.0625 -0.0625 -0.15625q0 -0.109375 0.0625 -0.171875q0.078125 -0.0625 0.25 -0.0625l0.84375 0l0 -1.4375zm0 -0.453125l0 -3.9375l-0.234375 0l-2.28125 3.9375l2.515625 0zm7.835449 -1.578125l0 1.109375q0 1.453125 -0.703125 2.3125q-0.53125 0.65625 -1.359375 0.65625q-0.40625 0 -0.765625 -0.15625q-0.34375 -0.15625 -0.59375 -0.4375q-0.140625 -0.1875 -0.328125 -0.578125q-0.1875 -0.390625 -0.265625 -0.71875q-0.125 -0.453125 -0.125 -1.078125l0 -1.109375q0 -1.46875 0.6875 -2.3125q0.546875 -0.671875 1.375 -0.671875q0.40625 0 0.75 0.171875q0.34375 0.15625 0.59375 0.4375q0.15625 0.171875 0.34375 0.578125q0.1875 0.390625 0.265625 0.703125q0.125 0.46875 0.125 1.09375zm-0.453125 0.046875q0 -0.625 -0.1875 -1.171875q-0.171875 -0.5625 -0.40625 -0.890625q-0.125 -0.1875 -0.34375 -0.3125q-0.3125 -0.203125 -0.6875 -0.203125q-0.75 0 -1.1875 0.78125q-0.421875 0.765625 -0.421875 1.796875l0 1.0q0 0.640625 0.171875 1.203125q0.1875 0.546875 0.40625 0.875q0.140625 0.171875 0.34375 0.3125q0.3125 0.1875 0.703125 0.1875q0.75 0 1.171875 -0.765625q0.4375 -0.78125 0.4375 -1.8125l0 -1.0zm13.092773 -2.203125l0 -0.203125l-3.234375 0l0 0.390625q0 0.171875 -0.0625 0.234375q-0.046875 0.0625 -0.15625 0.0625q-0.09375 0 -0.15625 -0.0625q-0.0625 -0.0625 -0.0625 -0.234375l0 -0.84375l4.140625 0l0 0.71875l-1.828125 5.796875q-0.03125 0.140625 -0.09375 0.1875q-0.0625 0.046875 -0.140625 0.046875q-0.09375 0 -0.15625 -0.0625q-0.0625 -0.078125 -0.0625 -0.15625q0 -0.0625 0.03125 -0.15625l1.78125 -5.71875zm7.163574 2.15625l0 1.109375q0 1.453125 -0.703125 2.3125q-0.53125 0.65625 -1.359375 0.65625q-0.40625 0 -0.765625 -0.15625q-0.34375 -0.15625 -0.59375 -0.4375q-0.140625 -0.1875 -0.328125 -0.578125q-0.1875 -0.390625 -0.265625 -0.71875q-0.125 -0.453125 -0.125 -1.078125l0 -1.109375q0 -1.46875 0.6875 -2.3125q0.546875 -0.671875 1.375 -0.671875q0.40625 0 0.75 0.171875q0.34375 0.15625 0.59375 0.4375q0.15625 0.171875 0.34375 0.578125q0.1875 0.390625 0.265625 0.703125q0.125 0.46875 0.125 1.09375zm-0.453125 0.046875q0 -0.625 -0.1875 -1.171875q-0.171875 -0.5625 -0.40625 -0.890625q-0.125 -0.1875 -0.34375 -0.3125q-0.3125 -0.203125 -0.6875 -0.203125q-0.75 0 -1.1875 0.78125q-0.421875 0.765625 -0.421875 1.796875l0 1.0q0 0.640625 0.171875 1.203125q0.1875 0.546875 0.40625 0.875q0.140625 0.171875 0.34375 0.3125q0.3125 0.1875 0.703125 0.1875q0.75 0 1.171875 -0.765625q0.4375 -0.78125 0.4375 -1.8125l0 -1.0z" fill-rule="nonzero"/></g><g filter="url(#shadowFilter-p.9)"><use xlink:href="#p.9" transform="matrix(1.0 0.0 0.0 1.0 0.0 2.0)"/></g><defs><filter id="shadowFilter-p.9" filterUnits="userSpaceOnUse"><feGaussianBlur in="SourceAlpha" stdDeviation="2.0" result="blur"/><feComponentTransfer in="blur" color-interpolation-filters="sRGB"><feFuncR type="linear" slope="0" intercept="0.0"/><feFuncG type="linear" slope="0" intercept="0.0"/><feFuncB type="linear" slope="0" intercept="0.0"/><feFuncA type="linear" slope="0.5" intercept="0"/></feComponentTransfer></filter></defs><g id="p.9"><path fill="#ffffff" d="m477.41995 235.68504l112.44095 0l0 41.4803l-112.44095 0z" fill-rule="evenodd"/><path stroke="#000000" stroke-width="1.0" stroke-linejoin="round" stroke-linecap="butt" d="m477.41995 235.68504l112.44095 0l0 41.4803l-112.44095 0z" fill-rule="evenodd"/><path fill="#000000" d="m505.82254 252.97769l0 -0.15625q0 -0.171875 0.0625 -0.234375q0.0625 -0.078125 0.15625 -0.078125q0.109375 0 0.171875 0.078125q0.0625 0.0625 0.0625 0.234375l0 1.015625q0 0.171875 -0.0625 0.25q-0.0625 0.0625 -0.171875 0.0625q-0.09375 0 -0.15625 -0.0625q-0.0625 -0.0625 -0.0625 -0.203125q-0.03125 -0.390625 -0.5 -0.734375q-0.46875 -0.34375 -1.265625 -0.34375q-1.015625 0 -1.53125 0.640625q-0.515625 0.625 -0.515625 1.4375q0 0.875 0.5625 1.4375q0.578125 0.5625 1.5 0.5625q0.515625 0 1.0625 -0.1875q0.546875 -0.1875 0.984375 -0.625q0.125 -0.109375 0.203125 -0.109375q0.09375 0 0.15625 0.0625q0.0625 0.0625 0.0625 0.15625q0 0.234375 -0.546875 0.59375q-0.875 0.5625 -1.953125 0.5625q-1.078125 0 -1.78125 -0.6875q-0.703125 -0.703125 -0.703125 -1.765625q0 -1.09375 0.71875 -1.8125q0.71875 -0.71875 1.796875 -0.71875q1.046875 0 1.75 0.625zm3.2260742 -2.546875l0 2.765625q0.4375 -0.46875 0.828125 -0.65625q0.390625 -0.1875 0.890625 -0.1875q0.515625 0 0.875 0.1875q0.37503052 0.1875 0.6250305 0.578125q0.25 0.375 0.25 0.796875l0 2.796875l0.5 0q0.171875 0 0.234375 0.0625q0.0625 0.0625 0.0625 0.171875q0 0.09375 -0.0625 0.15625q-0.0625 0.0625 -0.234375 0.0625l-1.4687805 0q-0.15625 0 -0.234375 -0.0625q-0.0625 -0.0625 -0.0625 -0.15625q0 -0.109375 0.0625 -0.171875q0.078125 -0.0625 0.234375 -0.0625l0.5156555 0l0 -2.765625q0 -0.484375 -0.35940552 -0.8125q-0.34375 -0.328125 -0.984375 -0.328125q-0.484375 0 -0.84375 0.234375q-0.25 0.171875 -0.828125 0.8125l0 2.859375l0.515625 0q0.15625 0 0.21875 0.0625q0.078125 0.0625 0.078125 0.171875q0 0.09375 -0.078125 0.15625q-0.0625 0.0625 -0.21875 0.0625l-1.46875 0q-0.171875 0 -0.25 -0.0625q-0.0625 -0.0625 -0.0625 -0.15625q0 -0.109375 0.0625 -0.171875q0.078125 -0.0625 0.25 -0.0625l0.5 0l0 -5.828125l-0.609375 0q-0.15625 0 -0.234375 -0.0625q-0.0625 -0.0625 -0.0625 -0.171875q0 -0.09375 0.0625 -0.15625q0.078125 -0.0625 0.234375 -0.0625l1.0625 0zm7.5542297 2.078125l0 1.140625q0.875 -0.796875 1.3125 -1.015625q0.4375 -0.234375 0.8125 -0.234375q0.40625 0 0.75 0.28125q0.34375 0.265625 0.34375 0.40625q0 0.09375 -0.078125 0.171875q-0.0625 0.0625 -0.15625 0.0625q-0.0625 0 -0.09375 -0.015625q-0.03125 -0.03125 -0.140625 -0.125q-0.1875 -0.1875 -0.328125 -0.25q-0.140625 -0.078125 -0.265625 -0.078125q-0.296875 0 -0.71875 0.234375q-0.421875 0.234375 -1.4375 1.15625l0 2.46875l2.0 0q0.15625 0 0.21875 0.0625q0.078125 0.0625 0.078125 0.171875q0 0.09375 -0.078125 0.15625q-0.0625 0.0625 -0.21875 0.0625l-3.546875 0q-0.15625 0 -0.234375 -0.0625q-0.0625 -0.0625 -0.0625 -0.15625q0 -0.09375 0.0625 -0.15625q0.0625 -0.0625 0.234375 -0.0625l1.09375 0l0 -3.75l-0.828125 0q-0.171875 0 -0.25 -0.0625q-0.0625 -0.078125 -0.0625 -0.171875q0 -0.09375 0.0625 -0.15625q0.078125 -0.078125 0.25 -0.078125l1.28125 0zm7.976074 2.765625l-2.984375 0l0 -0.515625l2.5 -4.328125l0.9375 0l0 4.390625l0.375 0q0.171875 0 0.234375 0.0625q0.078125 0.0625 0.078125 0.171875q0 0.09375 -0.078125 0.15625q-0.0625 0.0625 -0.234375 0.0625l-0.375 0l0 1.4375l0.375 0q0.171875 0 0.234375 0.0625q0.078125 0.0625 0.078125 0.171875q0 0.09375 -0.078125 0.15625q-0.0625 0.0625 -0.234375 0.0625l-1.671875 0q-0.171875 0 -0.25 -0.0625q-0.0625 -0.0625 -0.0625 -0.15625q0 -0.109375 0.0625 -0.171875q0.078125 -0.0625 0.25 -0.0625l0.84375 0l0 -1.4375zm0 -0.453125l0 -3.9375l-0.234375 0l-2.28125 3.9375l2.515625 0zm11.014648 -0.515625q0.421875 -0.609375 0.859375 -0.90625q0.453125 -0.296875 0.984375 -0.296875q0.71875 0 1.28125 0.609375q0.5625 0.59375 0.5625 1.46875q0 0.8125 -0.515625 1.484375q-0.5 0.65625 -1.40625 0.65625q-0.578125 0 -1.09375 -0.359375q-0.5 -0.359375 -0.796875 -1.109375q-0.359375 -0.921875 -0.359375 -2.046875q0 -0.859375 0.34375 -1.578125q0.25 -0.5625 0.671875 -0.984375q0.4375 -0.4375 1.015625 -0.703125q0.578125 -0.28125 1.234375 -0.28125q0.453125 0 0.75 0.1875q0.140625 0.078125 0.140625 0.21875q0 0.09375 -0.0625 0.15625q-0.0625 0.0625 -0.15625 0.0625q-0.0625 0 -0.15625 -0.0625q-0.234375 -0.109375 -0.5625 -0.109375q-1.046875 0 -1.90625 0.90625q-0.859375 0.90625 -0.859375 2.140625q0 0.171875 0.03125 0.546875zm0.109375 0.75q0.203125 0.984375 0.640625 1.40625q0.4375 0.40625 1.03125 0.40625q0.59375 0 1.015625 -0.46875q0.4375 -0.46875 0.4375 -1.21875q0 -0.703125 -0.4375 -1.15625q-0.421875 -0.46875 -0.96875 -0.46875q-0.515625 0 -1.0 0.453125q-0.328125 0.28125 -0.71875 1.046875zm9.913574 -1.8125l0 1.109375q0 1.453125 -0.703125 2.3125q-0.53125 0.65625 -1.359375 0.65625q-0.40625 0 -0.765625 -0.15625q-0.34375 -0.15625 -0.59375 -0.4375q-0.140625 -0.1875 -0.328125 -0.578125q-0.1875 -0.390625 -0.265625 -0.71875q-0.125 -0.453125 -0.125 -1.078125l0 -1.109375q0 -1.46875 0.6875 -2.3125q0.546875 -0.671875 1.375 -0.671875q0.40625 0 0.75 0.171875q0.34375 0.15625 0.59375 0.4375q0.15625 0.171875 0.34375 0.578125q0.1875 0.390625 0.265625 0.703125q0.125 0.46875 0.125 1.09375zm-0.453125 0.046875q0 -0.625 -0.1875 -1.171875q-0.171875 -0.5625 -0.40625 -0.890625q-0.125 -0.1875 -0.34375 -0.3125q-0.3125 -0.203125 -0.6875 -0.203125q-0.75 0 -1.1875 0.78125q-0.421875 0.765625 -0.421875 1.796875l0 1.0q0 0.640625 0.171875 1.203125q0.1875 0.546875 0.40625 0.875q0.140625 0.171875 0.34375 0.3125q0.3125 0.1875 0.703125 0.1875q0.75 0 1.171875 -0.765625q0.4375 -0.78125 0.4375 -1.8125l0 -1.0zm12.514648 0.375q0.5625 0.28125 0.84375 0.734375q0.28125 0.4375 0.28125 0.953125q0 0.796875 -0.609375 1.390625q-0.59375 0.578125 -1.453125 0.578125q-0.859375 0 -1.46875 -0.578125q-0.59375 -0.59375 -0.59375 -1.390625q0 -0.515625 0.28125 -0.953125q0.296875 -0.453125 0.875 -0.734375q-0.5 -0.28125 -0.71875 -0.59375q-0.3125 -0.421875 -0.3125 -0.953125q0 -0.75 0.5625 -1.296875q0.578125 -0.5625 1.375 -0.5625q0.8125 0 1.375 0.5625q0.578125 0.546875 0.578125 1.296875q0 0.53125 -0.3125 0.953125q-0.21875 0.3125 -0.703125 0.59375zm0.5625 -1.53125q0 -0.578125 -0.4375 -1.0q-0.4375 -0.421875 -1.0625 -0.421875q-0.625 0 -1.0625 0.421875q-0.421875 0.421875 -0.421875 1.0q0 0.515625 0.421875 0.921875q0.4375 0.390625 1.0625 0.390625q0.640625 0 1.0625 -0.390625q0.4375 -0.40625 0.4375 -0.921875zm0.125 3.234375q0 -0.59375 -0.46875 -1.03125q-0.46875 -0.453125 -1.15625 -0.453125q-0.6875 0 -1.15625 0.453125q-0.453125 0.4375 -0.453125 1.015625q0 0.625 0.46875 1.078125q0.46875 0.4375 1.140625 0.4375q0.6875 0 1.15625 -0.4375q0.46875 -0.453125 0.46875 -1.0625zm7.054199 -2.125l0 1.109375q0 1.453125 -0.703125 2.3125q-0.53125 0.65625 -1.359375 0.65625q-0.40625 0 -0.765625 -0.15625q-0.34375 -0.15625 -0.59375 -0.4375q-0.140625 -0.1875 -0.328125 -0.578125q-0.1875 -0.390625 -0.265625 -0.71875q-0.125 -0.453125 -0.125 -1.078125l0 -1.109375q0 -1.46875 0.6875 -2.3125q0.546875 -0.671875 1.375 -0.671875q0.40625 0 0.75 0.171875q0.34375 0.15625 0.59375 0.4375q0.15625 0.171875 0.34375 0.578125q0.1875 0.390625 0.265625 0.703125q0.125 0.46875 0.125 1.09375zm-0.453125 0.046875q0 -0.625 -0.1875 -1.171875q-0.171875 -0.5625 -0.40625 -0.890625q-0.125 -0.1875 -0.34375 -0.3125q-0.3125 -0.203125 -0.6875 -0.203125q-0.75 0 -1.1875 0.78125q-0.421875 0.765625 -0.421875 1.796875l0 1.0q0 0.640625 0.171875 1.203125q0.1875 0.546875 0.40625 0.875q0.140625 0.171875 0.34375 0.3125q0.3125 0.1875 0.703125 0.1875q0.75 0 1.171875 -0.765625q0.4375 -0.78125 0.4375 -1.8125l0 -1.0z" fill-rule="nonzero"/></g><path fill="#000000" fill-opacity="0.0" d="m248.86617 153.77483l139.77953 0" fill-rule="evenodd"/><path stroke="#000000" stroke-width="4.0" stroke-linejoin="round" stroke-linecap="butt" d="m248.86617 153.77483l115.77956 0" fill-rule="evenodd"/><path fill="#000000" stroke="#000000" stroke-width="4.0" stroke-linecap="butt" d="m364.64572 160.38174l18.152374 -6.6069183l-18.152374 -6.6069336z" fill-rule="evenodd"/></g></svg>